<?xml version="1.0" encoding="UTF-8"?>
<!DOCTYPE svg PUBLIC "-//W3C//DTD SVG 1.1//EN" "http://www.w3.org/Graphics/SVG/1.1/DTD/svg11.dtd">
<!-- Creator: CorelDRAW 2020 (64-Bit) -->
<svg xmlns="http://www.w3.org/2000/svg" xml:space="preserve" width="1411.11mm" height="1411.11mm" version="1.1" style="shape-rendering:geometricPrecision; text-rendering:geometricPrecision; image-rendering:optimizeQuality; fill-rule:evenodd; clip-rule:evenodd"
viewBox="0 0 141111.1 141111.1"
 xmlns:xlink="http://www.w3.org/1999/xlink"
 xmlns:xodm="http://www.corel.com/coreldraw/odm/2003">
 <defs>
  <style type="text/css">
   <![CDATA[
    .str0 {stroke:#000072;stroke-width:700;stroke-linejoin:round;stroke-miterlimit:22.9256}
    .fil26 {fill:black;fill-rule:nonzero}
    .fil3 {fill:#000072;fill-rule:nonzero}
    .fil5 {fill:#363F6C;fill-rule:nonzero}
    .fil0 {fill:#3D3144;fill-rule:nonzero}
    .fil4 {fill:#4D5A6A;fill-rule:nonzero}
    .fil1 {fill:#61ED46;fill-rule:nonzero}
    .fil21 {fill:#8A93C1;fill-rule:nonzero}
    .fil7 {fill:#A4A8BD;fill-rule:nonzero}
    .fil23 {fill:#A8AAD0;fill-rule:nonzero}
    .fil9 {fill:#AC3D50;fill-rule:nonzero}
    .fil6 {fill:#AFB5BC;fill-rule:nonzero}
    .fil2 {fill:#B2B2D4;fill-rule:nonzero}
    .fil11 {fill:#BC6473;fill-rule:nonzero}
    .fil20 {fill:#C6D3E3;fill-rule:nonzero}
    .fil24 {fill:#D7E0EB;fill-rule:nonzero}
    .fil10 {fill:#DAA8B0;fill-rule:nonzero}
    .fil22 {fill:#F1F4F8;fill-rule:nonzero}
    .fil8 {fill:#FDBD91;fill-rule:nonzero}
    .fil25 {fill:#FF5D01;fill-rule:nonzero}
    .fil12 {fill:white;fill-rule:nonzero}
    .fil16 {fill:url(#id0)}
    .fil17 {fill:url(#id1)}
    .fil15 {fill:url(#id2)}
    .fil13 {fill:url(#id3)}
    .fil18 {fill:url(#id4)}
    .fil14 {fill:url(#id5)}
    .fil19 {fill:url(#id6)}
   ]]>
  </style>
  <linearGradient id="id0" gradientUnits="userSpaceOnUse" x1="-60458.51" y1="66874.03" x2="-60895.96" y2="129890.02">
   <stop offset="0" style="stop-opacity:1; stop-color:#46A0B5"/>
   <stop offset="1" style="stop-opacity:1; stop-color:#46A0B5"/>
  </linearGradient>
  <linearGradient id="id1" gradientUnits="userSpaceOnUse" x1="-60458.63" y1="66875.1" x2="-60896.08" y2="129890.03">
   <stop offset="0" style="stop-opacity:1; stop-color:#3B93B6"/>
   <stop offset="1" style="stop-opacity:1; stop-color:#3B93B6"/>
  </linearGradient>
  <linearGradient id="id2" gradientUnits="userSpaceOnUse" x1="-60459.85" y1="66875.08" x2="-60897.3" y2="129890.03">
   <stop offset="0" style="stop-opacity:1; stop-color:#50E9A3"/>
   <stop offset="1" style="stop-opacity:1; stop-color:#50E9A3"/>
  </linearGradient>
  <linearGradient id="id3" gradientUnits="userSpaceOnUse" x1="-60458.54" y1="66875.08" x2="-60896" y2="129890.03">
   <stop offset="0" style="stop-opacity:1; stop-color:#3F8CA2"/>
   <stop offset="1" style="stop-opacity:1; stop-color:#3F8CA2"/>
  </linearGradient>
  <linearGradient id="id4" gradientUnits="userSpaceOnUse" x1="-60458.83" y1="66875.06" x2="-60896.3" y2="129890.06">
   <stop offset="0" style="stop-opacity:1; stop-color:#2073B9"/>
   <stop offset="1" style="stop-opacity:1; stop-color:#2073B9"/>
  </linearGradient>
  <linearGradient id="id5" gradientUnits="userSpaceOnUse" xlink:href="#id2" x1="-60458.85" y1="66875.08" x2="-60896.31" y2="129890.03">
  </linearGradient>
  <linearGradient id="id6" gradientUnits="userSpaceOnUse" xlink:href="#id3" x1="-60458.67" y1="66873.68" x2="-60896.13" y2="129811.27">
  </linearGradient>
 </defs>
 <g id="Layer_x0020_1">
  <metadata id="CorelCorpID_0Corel-Layer"/>
  <g id="_2490755243696">
   <path class="fil0" d="M-6498.41 56171.88c0,30084.26 -24388.27,54472.28 -54472.55,54472.28 -30084.26,0 -54472.54,-24388.01 -54472.54,-54472.28 0,-30084.92 24388.27,-54473.32 54472.54,-54473.32 30084.27,0 54472.55,24388.39 54472.55,54473.32z"/>
   <path class="fil1" d="M-18982.93 33749.95l-10486.77 0c-404.13,0 -731.41,-328.31 -731.41,-732.58 0,-402.96 327.28,-731.28 731.41,-731.28l10486.77 0c404.26,0 731.28,328.32 731.28,731.28 0,404.27 -327.02,732.58 -731.28,732.58z"/>
   <path class="fil1" d="M-39590.84 33749.95l-42938.81 0c-404.13,0 -731.39,-328.31 -731.39,-732.58 0,-402.96 327.26,-731.28 731.39,-731.28l42938.81 0c404.27,0 731.42,328.32 731.42,731.28 0,404.27 -327.15,732.58 -731.42,732.58z"/>
   <path class="fil1" d="M-89302.99 33749.95l-11869.11 0c-404.13,0 -731.41,-328.31 -731.41,-732.58 0,-402.96 327.28,-731.28 731.41,-731.28l11869.11 0c404.27,0 731.43,328.32 731.43,731.28 0,404.27 -327.16,732.58 -731.43,732.58z"/>
   <path class="fil1" d="M-18982.93 39846.85l-9023.43 0c-404.14,0 -731.41,-327.66 -731.41,-731.92 0,-404.14 327.27,-731.41 731.41,-731.41l9023.43 0c404.26,0 731.28,327.27 731.28,731.41 0,404.26 -327.02,731.92 -731.28,731.92z"/>
   <path class="fil1" d="M-33534.21 39846.85l-53925.38 0c-403.75,0 -731.4,-327.66 -731.4,-731.92 0,-404.14 327.65,-731.41 731.4,-731.41l53925.38 0c404.25,0 731.4,327.27 731.4,731.41 0,404.26 -327.15,731.92 -731.4,731.92z"/>
   <path class="fil1" d="M-94943.1 39846.85l-6229.01 0c-404.13,0 -731.41,-327.66 -731.41,-731.92 0,-404.14 327.28,-731.41 731.41,-731.41l6229.01 0c404.13,0 731.41,327.27 731.41,731.41 0,404.26 -327.28,731.92 -731.41,731.92z"/>
   <path class="fil1" d="M-18982.93 45944.01l-82189.17 0c-404.13,0 -731.41,-327.66 -731.41,-731.78 0,-404.27 327.28,-731.92 731.41,-731.92l82189.17 0c404.26,0 731.28,327.65 731.28,731.92 0,404.12 -327.02,731.78 -731.28,731.78z"/>
   <path class="fil1" d="M-18982.93 52040.8l-69507.02 0c-404.13,0 -731.4,-327.29 -731.4,-731.43 0,-404.12 327.27,-731.79 731.4,-731.79l69507.02 0c404.26,0 731.28,327.67 731.28,731.79 0,404.14 -327.02,731.43 -731.28,731.43z"/>
   <path class="fil1" d="M-94943.1 52040.8l-6229.01 0c-404.13,0 -731.41,-327.29 -731.41,-731.43 0,-404.12 327.28,-731.79 731.41,-731.79l6229.01 0c404.13,0 731.41,327.67 731.41,731.79 0,404.14 -327.28,731.43 -731.41,731.43z"/>
   <path class="fil1" d="M-18982.93 58137.96l-5242.56 0c-404.25,0 -732.56,-327.66 -732.56,-731.29 0,-404.25 328.31,-731.91 732.56,-731.91l5242.56 0c404.26,0 731.28,327.66 731.28,731.91 0,403.63 -327.02,731.29 -731.28,731.29z"/>
   <path class="fil1" d="M-29469.71 58137.96l-71702.4 0c-404.13,0 -731.41,-327.66 -731.41,-731.29 0,-404.25 327.28,-731.91 731.41,-731.91l71702.4 0c404.27,0 731.41,327.66 731.41,731.91 0,403.63 -327.14,731.29 -731.41,731.29z"/>
   <path class="fil1" d="M-18982.93 64235.25l-82189.17 0c-404.13,0 -731.41,-327.66 -731.41,-731.91 0,-403.63 327.28,-731.42 731.41,-731.42l82189.17 0c404.26,0 731.28,327.79 731.28,731.42 0,404.25 -327.02,731.91 -731.28,731.91z"/>
   <path class="fil1" d="M-18982.93 70332.41l-5917.18 0c-404.27,0 -732.56,-327.66 -732.56,-731.79 0,-403.76 328.29,-731.41 732.56,-731.41l5917.18 0c404.26,0 731.28,327.65 731.28,731.41 0,404.13 -327.02,731.79 -731.28,731.79z"/>
   <path class="fil1" d="M-31112.38 70332.41l-54125.57 0c-404.27,0 -731.92,-327.66 -731.92,-731.79 0,-403.76 327.65,-731.41 731.92,-731.41l54125.57 0c404.14,0 731.93,327.65 731.93,731.41 0,404.13 -327.79,731.79 -731.93,731.79z"/>
   <path class="fil1" d="M-94180.53 70332.41l-6991.58 0c-404.13,0 -731.41,-327.66 -731.41,-731.79 0,-403.76 327.28,-731.41 731.41,-731.41l6991.58 0c404.13,0 731.4,327.65 731.4,731.41 0,404.13 -327.27,731.79 -731.4,731.79z"/>
   <path class="fil1" d="M-18982.93 76429.71l-13202.16 0c-404.25,0 -731.39,-327.66 -731.39,-731.93 0,-403.62 327.14,-731.41 731.39,-731.41l13202.16 0c404.26,0 731.28,327.79 731.28,731.41 0,404.27 -327.02,731.93 -731.28,731.93z"/>
   <path class="fil1" d="M-42476.68 76429.71l-58695.42 0c-404.13,0 -731.41,-327.66 -731.41,-731.93 0,-403.62 327.28,-731.41 731.41,-731.41l58695.42 0c404.13,0 731.41,327.79 731.41,731.41 0,404.27 -327.28,731.93 -731.41,731.93z"/>
   <path class="fil2" d="M-9794.31 133791.19l-4189.41 0c0,22.14 -3.87,44.8 -9,67.46 -25.76,90.63 -96.58,156.81 -180.26,179.86 -1785.72,486.39 -3570.13,546.4 -5355.84,546.4 -164.8,0 -329.6,-0.52 -494.39,-1.42 -966.89,-15.2 -1933.78,-49.18 -2900.65,-49.18 -9.03,0 -16.74,0 -24.47,0l-2925.11 -0.9 -10329.44 0c-206.9,17 -415.08,25.49 -625.19,25.49l-47096.28 0c-210.13,0 -418.43,-8.49 -624.81,-25.49l-5674.5 0c-346.72,-0.51 -693.17,-0.9 -1039.76,-0.9 -1603.52,0 -3206.67,7.47 -4810.09,25.87 -1150.72,16.99 -2300.95,34 -3451.16,34 -799.91,0 -1599.29,-8.51 -2399.08,-30.13 -1950.11,-41.59 -3899.72,-142.66 -5849.83,-523.74 -120.39,-23.57 -204.06,-129.26 -204.06,-247.32l-4174.87 0c-1689.54,0 -2080.92,1858.45 -476.61,2272.62 8672.6,2239.94 30164.22,3360.01 51655.83,3360.01 21491.61,0 42982.96,-1120.07 51655.32,-3360.01 1604.17,-414.17 1212.78,-2272.62 -476.36,-2272.62l0.02 0z"/>
   <path class="fil3" d="M-107773.56 133543.22c1950.11,-380.95 3899.73,-482.02 5849.84,-523.61 1950,-53.29 3900.12,-25.11 5850.23,3.74 1950.13,22.66 3899.73,28.45 5849.86,25.09l64350.21 0 2925.12 -1.03c974.6,0.52 1950.5,-33.46 2925.11,-49.04 1950.5,-9.02 3899.73,13.25 5850.24,544.85 136.46,37.34 217.57,178.44 180.25,315.43 -25.76,90.63 -96.58,156.81 -180.25,179.86 -1950.51,531.71 -3899.74,553.87 -5850.24,544.98 -974.61,-15.58 -1950.51,-49.57 -2925.11,-49.18l-2925.12 -0.9 -64350.21 0c-1950.13,-3.36 -3899.73,2.44 -5849.86,24.97 -1950.11,28.85 -3900.23,57.16 -5850.23,3.87 -1950.11,-41.59 -3899.73,-142.66 -5849.84,-523.74 -137,-26.91 -226.22,-159.13 -199.3,-295.98 20.34,-103.41 101.45,-179.86 199.3,-199.31z"/>
   <path class="fil4" d="M-36852.65 128503.2l307.83 -36.82c8591.74,-1021.22 14471.97,-9171.49 12733.91,-17647.12l-3228.46 -15731c-1473.23,-7178.51 -7790.95,-12331.44 -15119.05,-12331.44l-18781.88 0 531.2 0 -18781.78 0c-7328.1,0 -13645.93,5152.94 -15119.04,12331.44l-3227.8 15731c-1739.1,8475.62 4141.89,16625.9 12733.11,17647.12l308.37 36.82 47643.58 0 0.01 0z"/>
   <path class="fil3" d="M-79190.88 82874.87c-7238.48,0 -13548.6,5146.25 -15003.44,12236.94l-3227.66 15731.51c-822.17,4006.96 78.79,8208.34 2472.7,11525.87 2393.4,3317.54 6096.27,5497.08 10158.85,5980.15l307.84 36.81 47622.85 -1.03 301.26 -35.78c4062.2,-483.07 7764.95,-2662.61 10158.46,-5980.15 2393.4,-3317.53 3295.91,-7518.53 2473.22,-11525.87l-3228.31 -15731.51c-1454.72,-7090.7 -7764.95,-12236.94 -15003.33,-12236.94l-37032.45 0 0.01 0zm42344.92 45746.38l-47650.27 0 -321.99 -37.21c-4127.74,-491.02 -7890.61,-2705.59 -10322.75,-6076.95 -2432.15,-3370.96 -3347.79,-7639.3 -2512.49,-11711.4l3227.8 -15731.11c1477.49,-7200.14 7884.94,-12425.7 15234.79,-12425.7l37032.46 0c7350.39,0 13757.31,5225.57 15234.68,12425.7l3227.41 15731.11c835.56,4072.11 -79.82,8340.95 -2511.84,11711.79 -2432.28,3370.97 -6194.63,5585.91 -10322.87,6076.56l-314.92 37.21 -0.01 0z"/>
   <path class="fil5" d="M-89077.8 126440.29c-1230.95,-586.43 -2373.56,-1349.9 -3387.83,-2267.34 -746.09,-899.05 -1385.32,-1884.47 -1902.37,-2935.04 1499.13,892.33 3181.07,1530.67 4996.53,1848.55l293.67 3353.83zm57430.87 -316.84l684.67 -7811.16c2952.54,-3348.7 4374.28,-7999.13 3397.35,-12752.58l-754.58 -3677.77 1069.5 -3997.45 2685.9 13089.12c786.65,3829.96 -74.68,7844.78 -2362.88,11015.4 -1249.35,1731.51 -2872.33,3138.7 -4719.96,4134.43l0 0.01z"/>
   <path class="fil6" d="M-94368 121237.91c-310.27,-184.63 -613.34,-380.58 -907.52,-586.45 -1638.05,-2921.38 -2188.57,-6368.81 -1509.56,-9677.84l2951.13 -14382.5 775.7 2904.9 -2516.74 12262.44c-687.38,3351.53 -184.1,6651.04 1206.99,9479.45z"/>
   <path class="fil7" d="M-92465.63 124172.95c-722.39,-653.01 -1379.27,-1384.04 -1956.7,-2184.31 -311.17,-431.18 -595.84,-877.81 -853.19,-1337.18 294.18,205.87 597.25,401.82 907.52,586.45 517.05,1050.57 1156.28,2035.99 1902.37,2935.04z"/>
   <path class="fil3" d="M-84450.91 127734.96l47552.55 0 263.41 -31.15c3881.71,-461.3 7420.3,-2544.54 9707.98,-5714.79 2288.2,-3170.63 3149.53,-7185.45 2362.88,-11015.4l-3227.93 -15730.99c-1393.41,-6789.95 -7434.97,-11717.97 -14366.4,-11717.97l-37032.46 0c-6931.05,0 -12972.97,4928.03 -14366.4,11717.97l-3227.8 15730.99c-786.12,3829.96 75.06,7844.78 2362.75,11015.02 2287.7,3170.63 5826.16,5253.87 9708.5,5715.17l262.91 31.15 0.01 0zm47598.26 1536.46l-47643.58 0c-30.26,0 -60.38,-1.79 -90.65,-5.66l-307.82 -36.3c-4308.24,-512.28 -8234.74,-2823.67 -10773.24,-6341.8 -2538.35,-3518.25 -3494.03,-7973.24 -2622.43,-12222.77l3227.81 -15730.99c1539.29,-7501.02 8214.38,-12945.31 15871.69,-12945.31l37032.46 0c7657.19,0 14332.42,5444.3 15871.71,12945.31l3227.67 15730.99c871.61,4250.04 -83.68,8705.04 -2622.57,12222.77 -2538.23,3518.13 -6464.86,5829.52 -10772.45,6341.8l-307.96 36.3c-30.12,3.87 -60.38,5.66 -90.63,5.66l-0.01 0z"/>
   <path class="fil4" d="M-33320.75 71137.47c-46.23,179.08 -94.89,360.74 -143.55,537.39 -38.24,135.94 -76.99,269.07 -115.23,402.32 -15.58,50.98 -28.33,99.65 -46.22,151.02 -30.78,110.07 -66.56,220.17 -99.66,327.79 -43.38,140.72 -89.73,279 -135.94,417.4 -20.36,61.4 -40.7,122.69 -61.42,181.79 -66.58,199.68 -135.45,396.54 -209.6,591.07 -76.99,215.4 -159.13,427.82 -243.72,637.94 -81.64,212.55 -169.05,422.15 -258.27,632.27 -87.28,207.29 -179.47,417.4 -273.84,622.35 -89.74,199.7 -182.18,396.55 -276.68,594.06 -12.74,25.48 -25.48,50.97 -38.24,76.45 -87.42,184.63 -179.45,366.29 -274.36,548.21 -2.31,5.15 -4.76,9.79 -7.58,15.08 -102.35,202.64 -207.29,399.48 -314.92,599.17 -127.98,235.61 -258.78,468.9 -394.22,699.36 -92.05,160.93 -187.06,319.54 -281.44,478.66 -5.28,4.77 -7.98,9.93 -7.98,12.88 -117.67,194.55 -238.06,386.63 -360.75,578.33 -204.96,320.2 -415.08,637.44 -632.78,952.34 -94.38,138.4 -191.72,274.36 -288.92,409.94 -82.27,115.22 -164.41,228 -248.47,343.23 -125.54,171.36 -253.51,340.53 -381.48,509.58 -125.54,163.75 -251.18,322.38 -379.15,483.82 -71.72,89.35 -143.56,178.96 -214.89,266.38 -46.21,56.27 -92.44,112.39 -138.27,168.53 -87.41,102.48 -171.88,204.97 -258.77,307.45 -235.62,276.68 -476.38,550.51 -721.89,822.04 -118.19,133.12 -240.88,263.41 -363.71,394.22 -89.62,94.89 -179.34,192.23 -268.56,286.72 -128.49,133.13 -253.64,263.93 -384.32,391.9 -184.23,186.95 -374,373.89 -563.39,558 -153.47,148.83 -307.31,294.7 -463.22,437.73 -23.18,23.18 -46.23,46.35 -69.4,64.25 -158.61,151.14 -320.06,297.02 -483.95,442.88 -299.35,268.69 -603.95,529.79 -913.72,788.57 -77,64.25 -153.84,127.98 -233.29,194.54 -156.17,127.98 -314.91,255.94 -476.37,384.31 -558.11,442.88 -1128.97,870.32 -1712.58,1282.44 -10.42,8.11 -23.17,15.57 -33.48,23.18 -2275.97,1603.01 -4752.03,2793.4 -7322.57,3574.38 -891.05,271.52 -1795.23,494.39 -2706.51,668.18 -4038.12,768.1 -8221.59,566.11 -12182.6,-601.62 -2662.6,-783.29 -5225.57,-2004.84 -7578.91,-3664.12 -184.23,-130.3 -368.35,-263.42 -552.96,-396.54 -17.9,-15.58 -35.93,-28.46 -56.27,-41.07 -181.66,-135.56 -363.45,-271.53 -542.92,-407.1 -186.95,-143.55 -373.5,-289.42 -560.45,-437.73l-2.82 0c-184.24,-148.71 -366.03,-296.89 -547.81,-445.72 -184.49,-151.03 -363.58,-304.61 -542.94,-458.47 -178.94,-153.47 -355.59,-306.94 -529.78,-463.23 -176.64,-158.62 -350.84,-314.91 -522.2,-476.36 -171.87,-158.75 -341.04,-319.67 -509.97,-484.08 -168.53,-160.95 -335.24,-324.84 -499.14,-491.44 -163.89,-166.2 -327.66,-332.92 -489.24,-501.46 -160.94,-171.88 -322.38,-343.37 -483.95,-517.55 -153.34,-169.06 -304.5,-338.1 -455.64,-511.78 -117.54,-133.12 -235.6,-269.21 -350.83,-404.65 -335.26,-397.17 -662.91,-801.31 -980.15,-1213.56 -128.48,-169.04 -258.78,-338.09 -381.6,-509.96 -17.9,-20.35 -33.47,-43.39 -48.54,-63.73 -87.41,-115.22 -171.88,-233.29 -253.62,-350.83 -189.78,-266.25 -374.03,-532.63 -553.36,-804.16 -99.65,-148.18 -199.69,-299.33 -294.18,-450.49 -145.88,-228 -289.43,-455.62 -430.14,-688.78 -97.33,-163.89 -197.36,-330.1 -294.7,-496.84 -133.13,-232.76 -263.42,-470.69 -394.23,-709.14 -94.37,-178.94 -189.38,-358.42 -281.44,-537.89 -94.88,-181.65 -186.94,-365.89 -274.35,-550 -15.07,-26.01 -27.82,-51.5 -38.24,-76.99 -194.54,-397.07 -376.32,-798.87 -545.38,-1203.52 -10.3,-18.03 -17.88,-33.09 -23.16,-50.99 -84.47,-199.82 -166.23,-399.5 -245.53,-601.63 -84.45,-210.12 -166.6,-422.54 -243.08,-637.94 -79.8,-212.42 -156.28,-427.19 -228.14,-642.58 -53.8,-158.74 -107.62,-320.05 -158.6,-481.12 -41.08,-127.97 -79.31,-255.94 -118.06,-384.43 -17.9,-56.14 -35.8,-115.11 -50.99,-171.36 -38.24,-125.54 -74.15,-248.36 -107.63,-373.89 -50.98,-184.23 -99.65,-368.34 -148.32,-555.4 -1915.1,-13519.27 10377.08,-28511.89 22659.87,-34941.1 3123.38,-1635.98 6861.67,-1635.98 9985.55,0 276.16,143.54 550,297.15 826.82,455.77l2.7 2.83c12000.43,6897.45 23701.53,21268.23 21830.22,34482.5l0.02 0z"/>
   <path class="fil6" d="M-86452.39 74742.92c-4313.56,-8619.32 -886.52,-15653.75 4461.05,-23294.24 190.27,-271.01 383.9,-541.12 580.77,-809.82 133.12,356 353.15,733.86 673.33,1118.16 -4382.12,4973.93 -8686.51,16910.33 -5715.15,22985.9zm8774.93 -26796.77c-497.73,-121.4 -951.05,-175.75 -1356.6,-175.75 -30.77,0 -60.89,0 -91.15,1.03 3858.14,-4473.92 8615.32,-8329.74 13515.13,-10894.62 1452.01,-760.13 3044.08,-1140.31 4636.81,-1140.31 1218.72,0 2436.91,222.47 3592.29,667.67 -678.5,-131.7 -1367.43,-197.87 -2056.34,-197.87 -1715.43,0 -3430.84,409.4 -4992.78,1227.2 -3643.79,1907.63 -7288.08,4568.32 -10562.61,7721.57 -243.59,115.74 -457.56,302.17 -623.78,551.03 -30.63,46.35 -59.99,95.41 -87.29,146.77 -676.68,677.6 -1335.35,1376.04 -1973.68,2093.29l0 -0.01z"/>
   <path class="fil3" d="M-33320.75 71137.47l2.44 0 -2.44 0zm-53313.05 3521.98l0.5 0.51 -0.5 -0.51zm47.25 116.64l0.5 1.02 -0.5 -1.02zm43874.65 10253.86l-5.67 4.64 5.67 -4.64zm-34224.75 3887.88l0.91 0.39 -0.91 -0.39zm967.01 -1193.21c176.13,127.06 352.26,254.02 528.38,378.64 8638.87,6095.36 20254.89,6104.38 28904.82,21.75l0 0c11.71,-8.87 24.98,-17.37 32.45,-22.64 569.95,-402.73 1134.77,-825.4 1677.68,-1256.44 158.24,-125.54 314.02,-251.18 467.1,-376.84l227.5 -190.29c288.51,-240.38 589.78,-500.44 895.81,-773 157.2,-139.68 312.47,-279.9 465.04,-424.86 12.73,-12.75 26.9,-25.11 41.06,-36.83l14.16 -14.16c7.99,-7.58 16.11,-15.19 24.08,-22.66 151.15,-138.92 299.85,-280.53 448.55,-424.09 184.23,-178.95 369.76,-362.16 550.14,-545.37 133.12,-130.28 251.56,-254.01 372.46,-379.55l269.21 -287.09c123.21,-130.81 237.54,-252.22 346.07,-375.42 245.13,-270.12 482.54,-541.13 713.51,-811.62l385.72 -462.85c71.84,-87.81 141.24,-174.71 210.64,-261.1 124.1,-155.78 246.4,-311.05 369.24,-471.21 122.7,-162.47 248.87,-328.18 371.55,-496.7 82.67,-111.88 162.5,-221.95 242.19,-334.73 95.9,-133.12 189.89,-264.46 281.94,-398.09 201.63,-291.74 403.76,-596.37 619.02,-932.52 118.96,-186.02 236.12,-372.58 350.45,-561.45l5.53 -9.42c92.05,-154.86 184.62,-309.36 274.35,-466.56 135.97,-230.84 262.14,-456.15 386.25,-684.16 103,-191.19 204.96,-382.89 304.62,-579.35l11.84 -23.57c89.61,-172.78 177.41,-345.17 260.06,-520.39l47.26 -95.41c85.48,-177.54 174.71,-368.33 261.09,-561.84 95.41,-205.36 183.72,-406.97 267.28,-605.88 87.8,-205.36 171.36,-406.96 249.77,-610.91 84.97,-211.53 163.38,-414.56 236.64,-620.04 75.96,-199.68 141.62,-386.62 204.82,-576.01l71.33 -210.62c41.07,-123.73 82.14,-246.94 120.9,-372.48l28.32 -90.75c22.14,-71.72 44.8,-143.94 65.14,-216.17 4.78,-16.09 9.4,-32.58 15.58,-48.66 7.08,-21.25 12.75,-41.97 18.94,-63.35l127.97 -444.18c41.96,-153.98 85.87,-316.84 127.45,-478.42 834.8,-5990.96 -1252.7,-12927.65 -5880.48,-19538.66 -4210.39,-6015.03 -10181.13,-11326.58 -16380.79,-14571.88 -2902.96,-1520.36 -6369.7,-1520.36 -9273.07,0 -6199.64,3245.3 -12170.37,8556.85 -16381.27,14571.88 -4626.76,6611.01 -6714.26,13547.19 -5880.5,19538.16 44.42,168.13 88.33,334.34 134.54,500.55 33.09,125.66 66.7,239.48 102.1,355.09 18.8,68.5 33.99,117.54 48.53,164.79 40.69,134.16 77.91,257.88 117.16,382 50.09,157.71 102.87,314.01 154.88,468.38 69.91,209.59 143.56,415.98 219.53,620.43 77.49,215.77 155.78,418.8 236.62,619.51 79.32,202.14 158.62,395.64 240.77,589.27l4.24 10.95c7.08,14.16 13.78,28.71 19.84,42.87 151.13,361.79 323.91,742.74 528.36,1165.42 4.77,9.91 9.53,20.33 13.65,30.64 9.91,17 18.93,34.5 27.43,51.88 83.16,175.74 170.45,351.36 260.57,524.13 93.09,180.38 186.55,357.01 279.65,533.65l14.67 26.4c121.79,221.95 243.6,443.79 367.69,661.12 62.83,107.62 131.33,222.33 199.31,336.15l88.31 149.21c134.54,222.34 274.74,444.32 417.01,666.65 94.38,150.12 189.26,294.18 284.66,436.33 165.71,250.67 341.82,506.1 541.64,787.14 80.6,115.62 159.01,225.19 240.24,332.31 3.34,4.76 19.45,26.51 22.66,31.28l-10.3 -11.33c17.38,19.31 33.48,39.52 48.15,60.37 92.57,129.4 189.78,256.86 286.59,383.93l82.65 109.57c296.51,384.31 619.02,783.8 955.17,1181.37 110.99,130.68 225.31,262.52 339,391.4 152.56,175.21 299.85,340.01 449.58,504.29 154.88,167.11 314.92,337.57 474.42,508.04 151.67,158.22 309.38,318.25 467.09,478.29 168.54,171.49 329.08,329.59 492.46,485.37 169.05,163.89 333.84,321.22 500.96,475.59 163.9,154.36 325.34,299.33 489.23,446.62l24.46 22.27c169.56,151.92 341.96,301.66 516.67,451.78 174.7,149.72 349.79,299.84 529.66,447.12 177.66,145.49 341.94,279.12 506.74,412.25 11.71,8.11 23.57,17 34.51,26.02 183.58,145.48 366.79,288.9 550.51,429.62 167.11,126.56 340.93,256.46 514.22,385.85 30.25,19.83 58.57,40.55 86.38,63.22l-0.01 0zm14995.86 6491.52c-5382.37,0 -10763.71,-1619.64 -15354.28,-4858.25 -187.45,-132.74 -373.88,-267.66 -560.44,-402.32 -9.53,-6.58 -18.93,-14.17 -28.32,-21.25 -12.74,-8.5 -25.49,-17.38 -37.72,-26.39 -193.12,-144.47 -371.69,-277.72 -546.78,-410.32 -181.41,-139.31 -359.85,-278.62 -537.92,-419.85 -15.05,-9.9 -29.22,-20.72 -43.38,-32.06 -179.86,-144.96 -357.41,-289.93 -535.07,-435.4 -206.77,-168.93 -390.36,-326.25 -573.55,-483.45 -183.73,-157.71 -365.01,-314.92 -543.58,-474.94l-24.97 -22.79c-172.79,-155.27 -342.34,-307.84 -510.48,-465.94 -171.36,-158.23 -344.66,-323.93 -517.95,-492.07 -169.95,-162.35 -342.35,-331.91 -511.77,-503.78 -173.81,-176.13 -337.2,-342.34 -497.73,-510.86 -166.22,-176.66 -328.69,-349.42 -491.04,-525.04 -163,-179.08 -318.27,-352.24 -473.14,-530.81 -116.14,-131.71 -238.07,-271.53 -356.5,-411.74 -351.35,-415.46 -688.93,-832.85 -1003.45,-1241.37l-84.47 -111.37c-100.16,-131.83 -200.71,-264.05 -297.01,-397.56 -17.38,-22.27 -34.37,-44.93 -50.47,-67.09 -95.01,-125.65 -185.13,-251.69 -272.94,-377.74 -205.87,-289.02 -391.51,-559.01 -563.79,-819.72 -101.06,-149.59 -205.47,-307.83 -304.09,-465.54 -145.87,-227.63 -292.76,-461.3 -437.22,-700.25l-90.12 -151.55c-69.91,-117.54 -140.73,-236.12 -209.74,-354.68 -132.21,-231.37 -258.25,-460.28 -384.29,-689.83l-20.34 -37.21c-101.98,-192.73 -198.27,-374.53 -291.36,-556.32 -92.96,-177.92 -185.02,-362.16 -272.94,-546.26 -20.73,-38.76 -40.05,-77.51 -57.17,-116.65 -206.76,-427.69 -383.28,-817.8 -539.57,-1189.87 -15.07,-29.74 -31.67,-65.66 -46.35,-106.73 -83.56,-197.37 -164.28,-394.74 -242.69,-594.94 -85.49,-212.94 -171.36,-434.9 -251.7,-659.57 -78.41,-210.62 -158.1,-434 -232.78,-657.76 -54.32,-160.03 -109.55,-325.86 -162.34,-492.07 -41.59,-131.19 -81.24,-262.9 -121.41,-395.13 -17.51,-55.74 -38.24,-124.23 -56.14,-189.89 -35.01,-113.3 -73.76,-245.52 -109.56,-380.06 -49.57,-179.48 -99.13,-367.83 -148.82,-558.63 -7.47,-28.33 -13.14,-57.03 -17.39,-85.87 -1159.74,-8186.59 2697.11,-15763.19 6136.82,-20677.17 4347.39,-6210.47 10516.9,-11696.21 16927.04,-15051.99 3349.73,-1754.55 7349.11,-1754.55 10698.17,0 6410.79,3355.78 12580.19,8841.9 16927.17,15051.99 3439.73,4913.98 7296.96,12490.57 6137.22,20677.17 -4.13,28.31 -9.91,56.13 -17,83.55 -47.12,183.72 -96.69,369.24 -146.77,550.13l-131.33 458.47c-11.84,39.66 -23.03,78.79 -36.82,118.96 -22.66,80.72 -48.14,161.45 -73.11,241.27l-26.53 84.98c-41.98,135.94 -86.38,269.07 -130.29,402.33l-9.91 30.25c-22.15,66.04 -43.91,130.8 -65.68,192.61 -66.55,200.71 -139.16,407.99 -217.57,612.44 -74.15,209.6 -159.64,431.56 -248.36,651.07 -80.85,209.73 -171.48,428.34 -264.04,646.45 -89.23,212.03 -185.52,430.13 -283.77,643.59 -88.69,197.36 -183.72,400.79 -281.3,604.34l-44.43 88.83c-82.64,176.13 -179.47,367.31 -279.12,558.11 -108.53,215.26 -216.68,417.78 -327.14,623.27 -133.64,245.9 -268.7,486.78 -408.51,724.71 -90.12,157.33 -187.45,320.19 -284.15,482.53l-3.34 5.3 -7.09 11.84c-120.88,200.19 -244.6,397.43 -371.17,594.92 -225.18,351.75 -437.22,670.9 -647.33,975.01 -96.3,140.72 -196.87,280.53 -297.02,420.74 -82.66,116.12 -166.6,231.35 -253.12,349.42 -127.98,174.71 -258.27,346.97 -388.54,519.36 -130.82,170.86 -259.31,332.94 -390.5,498.12 -75.06,94.37 -149.21,187.08 -223.37,276.67l-404.66 485.38c-240.75,282.85 -489.1,565.32 -737.97,840.07 -112.92,127.97 -238.05,261.1 -362.67,393.84l-281.46 299.72c-140.2,145.99 -269.58,280.54 -403.61,412.25 -178.96,181.39 -372.07,372.07 -565.71,560.56 -156.31,151.01 -310.66,297.91 -468.37,442.36 -29.37,28.85 -58.99,57.17 -88.34,82.15 -159.12,151.15 -320.57,297.02 -484.46,442.88 -318.25,282.85 -631.77,553.35 -932.52,804.66l-231.35 193.13c-166.21,136.33 -328.17,267.15 -492.58,397.45 -565.59,449.06 -1153.44,889.24 -1747.48,1308.44 -4.64,3.35 -19.83,13.77 -28.33,19.82l-6.17 4.25c-4583.37,3223.16 -9952.47,4834.16 -15320.67,4834.69l0.01 0z"/>
   <path class="fil8" d="M-39456.68 75017.37c-47.25,144.06 -98.74,289.94 -152.05,439.65 -1423.54,3646.62 -4215.53,5590.05 -5906.49,3389.77l1008.59 -4953.12 686.09 -3367.11c2638.01,-1801.79 6155.37,-992.11 4363.86,4490.81z"/>
   <path class="fil3" d="M-45416.99 78824.14c513.31,650.17 1158.2,940.48 1870.29,839.55 1413.25,-201.22 2925.64,-1865.66 3852.48,-4239.75 52.4,-146.76 103.38,-291.86 150.25,-434.91 763.99,-2336.74 619.4,-4047.39 -405.16,-4816.64 -902.77,-677.09 -2421.86,-511.78 -3788.75,409.4l-1679.11 8242.34 0 0.01zm1593.11 1042.57c-670.9,0 -1276.28,-329.19 -1763.95,-963.79l-25.5 -33.47 1710.66 -8397.21 30.63 -21.24c1440.17,-983.49 3060.7,-1153.95 4032.99,-424.99 632.66,475.07 1535.03,1758.41 469.27,5020.2 -47.25,144.46 -99.13,290.85 -152.94,441.98 -951.44,2436.92 -2520.48,4146.16 -3997.96,4356.79 -102.49,14.67 -204.07,21.75 -303.2,21.75l0 -0.02z"/>
   <path class="fil3" d="M-44851.28 78676.33c362.55,380.06 768.24,533.14 1230.94,467.49 1210.22,-172.92 2591.28,-1744.26 3437.41,-3910.55 820.23,-2266.96 798.48,-3959.2 -64.64,-4628.3 -674.75,-523.22 -1892.05,-395.26 -3020.51,297.92l-1583.2 7773.44zm1030.74 1714.51c-832.48,0 -1596.96,-405.67 -2183.4,-1168.24 -109.05,-141.62 -150.63,-323.41 -115.23,-498.63l1695.2 -8320.22c31.67,-157.2 123.72,-295.6 255.95,-386.24 1645.51,-1123.31 3524.69,-1279.09 4675.43,-386.63 772.47,598.68 1859.47,2178.65 463.23,6036.28 -1038.73,2661.7 -2729.17,4456.41 -4417.16,4696.66 -125.66,18.02 -250.29,27.03 -374.02,27.03l0 -0.01z"/>
   <path class="fil8" d="M-82485.22 75017.37c47.24,144.06 98.75,289.94 152.05,439.65 1423.56,3646.62 4215.55,5590.05 5906.5,3389.77l-1008.6 -4953.12 -686.47 -3367.11c-2637.63,-1801.79 -6154.86,-992.11 -4363.48,4490.81z"/>
   <path class="fil3" d="M-82363.41 74977.71c46.85,142.65 97.83,287.62 151.13,436.32 920.8,2358.49 2421.85,4014.04 3822.22,4213.73 702.58,99.67 1316.43,-173.29 1826.4,-813.15l-1672.92 -8211.04c-1351.34,-905.22 -2847.24,-1067.57 -3733.91,-401.82 -1011.96,758.7 -1151.24,2454.81 -392.92,4775.97l0 -0.01zm4246.29 4925.83c-101.46,0 -204.45,-7.59 -309.26,-22.66 -1490.23,-212.04 -3070.58,-1930.28 -4025.76,-4377.12 -55.23,-154.5 -107.26,-301.26 -154.89,-446.22l0 -0.39c-1072.32,-3283.17 -158.22,-4579.77 482.56,-5060.38 984.51,-738.48 2622.03,-568.04 4074.8,423.96l43.01 29.35 1717.35 8428.25 -35.93 46.86c-495.28,643.99 -1109.66,978.34 -1791.88,978.34l0 0.01z"/>
   <path class="fil3" d="M-80624.83 70283.88c-419.71,0 -790.89,105.3 -1069.49,321.09 -863.13,669.1 -884.88,2361.34 -58.97,4642.33 840.45,2152.26 2221.51,3723.6 3431.73,3896.52 463.23,65.65 867.88,-87.43 1230.94,-467.49l-1583.58 -7773.44c-662.01,-407.09 -1355.18,-619.01 -1950.63,-619.01zm2503.46 10106.96c-123.22,0 -248.36,-9.01 -374.02,-27.03 -1687.46,-240.25 -3377.91,-2034.96 -4411.48,-4682.5 -1401.92,-3871.79 -314.41,-5451.76 457.56,-6050.44 1151.12,-892.46 3029.92,-737.07 4675.42,386.63 132.23,90.64 224.29,229.04 255.95,386.24l1695.19 8320.22c35.81,175.21 -6.16,357.01 -115.22,498.63 -586.04,762.05 -1350.93,1168.24 -2183.4,1168.24l0 0.01z"/>
   <path class="fil8" d="M-44192.1 74019.19l0 2847.23c0,4897.9 -2343.95,9542.67 -6381.06,12316.26 -57.67,39.25 -115.22,76.07 -170.44,114.69 -6157.18,4127.87 -14218.62,4127.87 -20375.4,2.46 -55.75,-39.27 -113.31,-77.9 -170.97,-117.15 -4038.52,-2771.67 -6382.86,-7416.45 -6382.86,-12316.26l0 -2847.23c0,0 10.43,-182.69 30.77,-511.76 152.05,-2598.88 840.45,-14259.29 951.44,-14557.22 3665.02,-9865.17 40307.36,-7447.19 32498.51,15068.98l0.01 0z"/>
   <path class="fil3" d="M-63540.09 53566.82c-1464.22,0 -2907.6,107.76 -4282.11,327.79 -4630.62,740.42 -7819.27,2599.26 -8748.55,5100.02 -88.71,328.05 -563.79,8027.85 -943.45,14520.26 -20.74,328.69 -30.64,511.37 -30.64,511.37l0 2840.16c0,4927.25 2365.57,9492.21 6327.62,12210.55 68.49,46.73 121.41,82.66 171.88,118.06 6143.51,4115.88 14085.49,4114.99 20230.42,-3.86 33.09,-23.05 69.38,-47.12 106.21,-71.71l63.85 -43.01c3960.12,-2720.67 6324.8,-7285.25 6324.8,-12210.03l6.57 -2889.2c4283.13,-12349.85 -5165.19,-17242.08 -9426.03,-18772.37 -2990.78,-1074.12 -6450.45,-1638.03 -9800.55,-1638.03l-0.02 0zm2606.48 38970.2c-3570.65,0 -7141.18,-1043.48 -10256.71,-3130.97 -51.88,-36.31 -103.38,-71.33 -154.87,-106.22 -4048.43,-2777.84 -6455.61,-7421.72 -6455.61,-12433.41l0 -2847.23c0.51,-7.47 10.43,-190.29 31.17,-519.36 250.8,-4286.86 845.73,-14290.46 959.02,-14594.55 961.86,-2589.33 4223.14,-4507.79 8947.74,-5263.79 4560.32,-729.48 9872.77,-235.1 14209.71,1322.61 4330.78,1554.87 13929.19,6525.9 9589.03,19076.33l0 2825.99c0,5009.39 -2406.27,9652.74 -6436.81,12421.56l-66.04 44.42c-35.03,23.18 -69.4,46.23 -103,69.91 -3117.71,2089.82 -6690.68,3134.71 -10263.64,3134.71l0.01 0z"/>
   <path class="fil3" d="M-76690.61 58949.19l2.32 0 -2.32 0zm582.19 202.65l-4.25 11.84c1.41,-3.35 2.83,-7.21 4.25,-11.84zm-4.25 12.22l-0.52 0 0.52 0zm-943.97 14873.16l0 2829.2c0,4766.7 2286.79,9181.01 6116.09,11808.73 54.86,37.73 109.57,75.05 164.93,111.88 5981.04,4008.39 13709.15,4007.87 19687.74,-0.91l164.43 -111.48c3829.29,-2628.61 6115.18,-7042.95 6115.18,-11808.22l0 -2847.23c0,-68.88 11.33,-137.37 33.48,-202 4140.47,-11936.7 -5004.12,-16670.71 -9128.11,-18151.94 -8938.33,-3210.28 -20313.06,-1432.56 -22193.28,3454.4 -113.82,796.17 -633.19,9299.98 -960.45,14917.57l-0.01 0zm16124.44 18989.43c-3665.54,0 -7330.56,-1071.81 -10529.12,-3214.93 -58.96,-39.78 -118.06,-79.82 -177.03,-119.99 -4164.69,-2857.65 -6650.65,-7652.17 -6650.65,-12825.31l0 -2847.23c0,-12.23 0,-24.06 1.04,-35.79 861.69,-14815.09 980.66,-15143.77 1019.4,-15248.57 2255.5,-6068.84 14962.38,-7397.64 23782.54,-4229.71 4201.5,1509.04 7382.56,3902.56 9199.93,6921.15 2138.48,3552.62 2377.43,7823.53 710.17,12695.91l0 2744.24c0,5171.74 -2485.58,9965.85 -6649.23,12823.89l-175.61 118.96c-3198.58,2144.66 -6865.01,3217 -10531.44,3217.38z"/>
   <path class="fil9" d="M-44385.22 52910.08c4622.13,5906.5 4047.02,16184.82 153.86,21571.44 -2978.93,-1643.71 -3175.8,-9417.66 -3175.8,-9417.66 -7051.03,1918.96 -14185.64,748.02 -20655.02,-4825.53 -137.76,2189.97 1697.02,4221.72 1697.02,4221.72 -832.35,-24.6 -1577.93,-145.88 -2247.53,-347.1 -2340.1,-700.64 -3733,-2395.33 -4585.69,-4525.82 -821.65,7395.69 -873.16,9039.39 -4474.45,14432.06 -3595.12,-7704.05 -4256.62,-17205.64 1736.27,-20046.7 -8355.63,-2876.44 -5273.83,-8698.47 1916.53,-3527.65 -3527.15,-5068.35 924.52,-7021.68 1849.04,-1438.22 5199.56,-9497.35 28042.62,-6162.83 31138.71,4622.64l-3344.97 -717.25c-6.17,-1.93 -7.98,-1.93 -7.98,-1.93l0.01 0z"/>
   <path class="fil3" d="M-47283.43 64897.66l4.12 162.98c1.93,75.98 224.41,7544.92 3011.64,9251.33 3706.09,-5236.89 4404.42,-15415.56 -218.23,-21323.09l-162.35 -206.77 312.98 9.52 3117.86 667.17c-1793.82,-5732.69 -9080.99,-9022.79 -15574.82,-9744.41 -5621.2,-625.07 -12583.52,453.32 -15266.34,5354.03l-178.06 324.97 -60.9 -365.52c-359.84,-2175.3 -1243.17,-3109.34 -1890.64,-3248.14 -328.56,-70.29 -615.67,49.58 -808.27,338.99 -423.57,636.54 -394.36,2132.43 1081.21,4252.89l426.92 613.48 -606.25 -436.33c-3018.73,-2170.67 -5185.91,-2311.77 -6122.81,-1773.49 -436.32,250.68 -650.68,662.92 -602.92,1161.04 100.56,1058.56 1450.47,2718.87 4925.2,3914.79l297.02 102.48 -283.76 134.68c-5834.27,2765.46 -5308.21,11946.99 -1770.65,19669.45 3312.78,-4997.15 3512.07,-6801.27 4228.29,-13292.78l155.4 -1399.47 189.77 474.03c949.12,2371.77 2421.85,3827.89 4502.77,4450.77 593.91,178.45 1241.37,288.91 1926.43,329.08 -474.03,-595.96 -1654.51,-2273.54 -1540.18,-4089.11l15.97 -257.37 195.03 168.66c6080.69,5238.3 12990.12,6853.17 20537.87,4799.15l157.71 -43 -0.01 -0.01zm3089.4 9750.46l-99.14 -54.72c-2803.32,-1546.38 -3190.08,-8203.19 -3236.8,-9363.71 -7489.18,1990.67 -14354.18,403.23 -20411.7,-4719.98 19.83,2009.09 1654,3845.54 1671.52,3864.33l200.58 222.48 -299.33 -8.5c-815.47,-24.2 -1582.68,-142.65 -2281.13,-352.26 -2023.64,-606.26 -3491.73,-1965.17 -4474.84,-4148.58l-44.79 406.06c-730.9,6622.32 -927.37,8401.97 -4396.44,13596.77l-126.56 189.37 -96.29 -205.85c-3620.75,-7759.81 -4222.64,-17065.46 1525.12,-20081.2 -3374.71,-1225.29 -4701.94,-2875.17 -4811.51,-4031.95 -57.56,-603.96 202.14,-1103.5 730.51,-1407.07 990.19,-568.55 3027.59,-466.96 5859.63,1414.15 -1186.52,-1941.51 -1152.92,-3346.76 -724.71,-3990.88 251.19,-377.23 645.01,-540.1 1075.54,-447.13 721.49,154.88 1611.65,1056.74 2026.21,3110.76 2859.46,-4751.12 9757.94,-5801.19 15344.25,-5180.24 6655.92,739.4 14139.8,4160.32 15854.32,10133.75l59.09 205.47 -3223.16 -690.85c4484.75,6066.52 3706.21,16245.71 -53.82,21448.22l-66.56 91.55 0.01 0.01z"/>
   <path class="fil10" d="M-79488.4 51309.37c-530.17,-513.16 -806.86,-1008.08 -846,-1419.29 -29.35,-309.38 88.33,-535.46 359.72,-691.37 234.19,-134.03 552.98,-207.67 944.87,-207.67 195.95,0 410.33,18.41 641.16,57.04 -1196.95,223.89 -1654.9,1151.75 -1099.75,2261.29z"/>
   <path class="fil10" d="M-78784.49 69320.72c-689.59,-2424.89 -1115.53,-4521.42 -999.89,-7126.24 96.3,-2653.2 888.21,-6136.82 4111.76,-7665.29 17,-7.98 33.99,-17 50.09,-26.4 129.26,314.41 63.22,696.39 -234.71,943.84 -4148.06,3439.32 -3002.22,9170.31 -2927.25,13874.09z"/>
   <path class="fil10" d="M-73494.49 50123.39c-6.18,-10.44 -12.75,-20.36 -19.83,-30.78 -1431.65,-2056.86 -1329.69,-3321.8 -1075.67,-3703.26 74.16,-111.89 151.67,-141.24 223.89,-141.24 26.01,0 51.51,3.87 75.95,9.02 146.92,31.67 359.85,159.64 584.64,430.14 -340.02,536.34 -372.58,1542.12 238.32,2887.78 87.94,194.66 63.86,391.52 -27.3,548.34z"/>
   <path class="fil10" d="M-70959.34 48911.75c-133.65,0 -266.38,-27.43 -387.65,-82.28 1975.61,-3028.5 6340.37,-4790.14 11663.63,-4790.14 919.37,0 1867.97,52.41 2836.92,160.05 3480.91,387.12 7192.68,1520.87 10117.27,3379.84 -3776.01,-1534.14 -8502.4,-2529.49 -12829.96,-2549.82 -389.58,747.51 -1265.95,1080.83 -2160.75,1080.83 -800.27,0 -1614.72,-266.76 -2108.22,-741.72 -2691.43,482.55 -4969.74,1501.97 -6391.35,3200.9 -190.8,228.52 -466.96,342.34 -739.9,342.34l0.01 0z"/>
   <path class="fil3" d="M-47407.66 64447.68c131.31,0 260.58,42.11 368.34,121.92 151.53,112.79 243.08,289.43 247.83,478.68 49.58,1914.72 584.52,6891.02 2407.18,8564.85 3357.7,-5202.9 3888.9,-14732.83 -486.4,-20322.99 -160.05,-204.45 -174.59,-486.79 -36.83,-706.81 137.5,-220.03 396.68,-329.98 651.71,-275.78l2274.43 487.82c-2135.65,-5024.98 -8845.76,-7926.91 -14865.04,-8595.99 -6866.94,-762.57 -12669.01,1240.33 -14783.94,5103.23 -126.55,230.98 -385.2,356.13 -643.98,311.7 -259.3,-43.89 -461.81,-247.45 -504.81,-506.73 -342.72,-2071.8 -1138.37,-2770.24 -1510.98,-2850.45 -91.53,-19.84 -198.78,-19.84 -299.84,132.22 -254.02,381.46 -355.98,1646.4 1075.67,3703.26 171.36,246.41 140.73,580.77 -73.25,791.41 -214.35,210.5 -549.1,236.12 -792.3,61.41 -2648.83,-1904.81 -4718.43,-2249.59 -5594.81,-1746.71 -271.39,155.91 -389.07,381.99 -359.72,691.37 93.87,986.32 1552.05,2451.07 4598.44,3499.72 237.02,81.23 400.91,297.91 414.7,548.19 13.63,250.29 -125.15,483.96 -351.36,591.21 -3223.55,1528.48 -4015.46,5012.09 -4111.76,7665.3 -114.2,3145.65 687.49,6934.41 2215.46,10541.86 2776.93,-4329.48 2973.78,-6112.86 3659.36,-12324.87l98.75 -892.86c31.53,-280.92 249.77,-504.17 529.78,-542.53 280.93,-38.24 550,119.99 654.81,381.98 992.5,2481.85 2621.65,3914.41 4959.82,4348.29 -529.27,-874.83 -1096.4,-2150.19 -1010.91,-3506.8 14.54,-233.28 160.02,-438.64 375.81,-529.28 215.27,-90.76 464.12,-52.01 641.67,100.94 5950.02,5126.04 12708.68,6706.92 20090.73,4698.21 53.3,-14.54 107.63,-21.76 161.45,-21.76l-0.01 -0.01zm3175.78 10650.02c-100.93,0 -203.03,-25.11 -296.88,-76.47 -2718.36,-1499.64 -3325.14,-7036.88 -3459.17,-9171.62 -7017.05,1701.77 -13484.49,306.41 -19260.57,-4151.81 417.4,1307.02 1329.06,2336.35 1341.41,2350.01 164.81,183.72 204.45,448.03 100.56,671.4 -101.46,218.22 -319.68,357.01 -558.63,357.01 -6.06,0 -12.63,0 -18.81,0 -2829.71,-86.91 -4983.38,-1229.51 -6425.46,-3403.03 -650.55,5812.02 -1021.23,7702.65 -4351.12,12688.34 -123.21,184.63 -335.26,288.52 -559,272.04 -221.97,-16.99 -417.41,-152.05 -511.91,-353.67 -3532.79,-7570.92 -4214.12,-16600.28 880.76,-20194.62 -2914.31,-1265.84 -4098.13,-2891.52 -4210.91,-4078.55 -75.59,-794.24 279.51,-1478.53 973.58,-1877 932.5,-535.84 2647.02,-575.11 4947.45,594.56 -507.51,-1380.3 -374.89,-2418.13 24.08,-3018.21 363.2,-544.86 956.21,-789.48 1584.61,-654.02 905.22,194.53 1656.46,1076.57 2121.1,2439.74 3258.95,-4184.9 9826.43,-5114.07 15200.81,-4517.33 6817.63,757.93 14492.97,4293.56 16269.8,10484.7 59.87,208.32 6.05,432.59 -141.76,590.69 -147.79,158.23 -367.82,227.11 -579.73,181.79l-1834 -393.32c1668.68,2736.77 2547.38,6246.52 2496.91,10060.22 -55.23,4188.77 -1233.78,8177.58 -3233.09,10943.7 -119.33,165.69 -307.82,255.43 -500.05,255.43l0.02 0.02z"/>
   <path class="fil3" d="M-47407.66 65680.56c-272.05,0 -520.78,-181.28 -594.94,-456.53 -88.32,-328.68 106.73,-666.78 435.29,-755.1 765.39,-205.86 1539.29,-453.19 2300.44,-734.63 319.28,-118.06 673.86,44.42 791.91,363.96 118.07,319.29 -44.93,673.87 -364.08,791.93 -796.05,294.57 -1606.38,553.34 -2408.08,769.13 -53.81,14.16 -107.63,21.24 -160.54,21.24z"/>
   <path class="fil3" d="M-41391.61 67114.65l-626.23 -5.27c718.68,-4350.6 143.69,-9253.25 -2185.2,-12878.11 -40.56,-420.23 -101.07,-860.28 -182.18,-1321.19 2942.5,3759.91 3778.84,9290.97 2993.61,14204.57zm-5246.41 -45.82l-616.7 -5.29c-62.31,-556.18 -100.03,-1034.46 -122.17,-1383.89 42.87,-1.94 86.38,-9.02 129.77,-20.34 158.24,-42.5 316.84,-86.91 475.47,-132.62 23.68,437.22 66.55,965.6 133.63,1542.14zm-6956.16 -1146.99c-4979.14,0 -9889.64,-1738.98 -14467.99,-5683.51 -137.76,2189.97 1697.02,4221.72 1697.02,4221.72 -832.35,-24.6 -1577.93,-145.88 -2247.52,-347.1 -176.13,-290.33 -339.52,-568.94 -489.11,-836.22 444.68,191.71 923.1,334.75 1435.38,429.63 -529.27,-874.82 -1096.4,-2150.18 -1010.91,-3506.79 14.54,-233.28 160.02,-438.64 375.81,-529.28 76.99,-32.57 158.22,-48.66 238.95,-48.66 145.35,0 288.53,51.5 402.72,149.6 4281.71,3689.23 8983.66,5542.02 14034.5,5542.02 1967.11,0 3986.63,-280.93 6056.23,-843.81 2.31,-0.9 5.14,-1.41 7.59,-2.31 -1.93,0.38 -3.85,1.41 -5.79,1.8 -327.15,87.93 -521.68,422.68 -436.7,749.94 -1862.84,460.27 -3731.59,702.97 -5590.18,702.97z"/>
   <path class="fil3" d="M-47376.89 65679.66c-24.72,-387.26 -30.27,-615.8 -30.27,-615.8 -198.77,54.34 -397.55,105.84 -596.85,155.01 -84.99,-327.26 109.55,-662.01 436.7,-749.94 1.94,-0.39 3.86,-1.42 5.79,-1.8 763.47,-205.36 1535.43,-451.91 2294.65,-732.83 70.42,-26.39 142.65,-38.75 213.98,-38.75 250.67,0 485.89,153.98 577.93,402.71 118.07,319.29 -44.93,673.87 -364.08,791.93 -639.36,236.5 -1287.08,449.96 -1932.61,636.51 -158.63,45.71 -317.23,90.12 -475.47,132.62 -43.39,11.32 -86.9,18.4 -129.77,20.34z"/>
   <path class="fil11" d="M-51731.35 59737.24c-2254.6,0 -4082.92,-756.89 -4082.92,-1690.82 0,-933.54 1828.32,-957.61 4082.92,-957.61 2255.13,0 4082.93,24.07 4082.93,957.61 0,933.93 -1827.8,1690.82 -4082.93,1690.82z"/>
   <path class="fil3" d="M-58772.48 85415.68c0,0 -883.98,564.68 -3187.64,564.68 -500.05,34.51 -1930.3,-43.9 -3737.76,-1694.18 0,0 834.79,2406.79 3683.82,2406.79 0,0 1621.05,147.29 3241.58,-1277.29z"/>
   <path class="fil3" d="M-71852.72 74720.34c193.52,-628.79 656.36,-1151.64 1227.22,-1507.61 573.69,-355.6 1260.68,-537.26 1942.53,-530.31 682.23,4.76 1359.82,200.71 1927.45,554 564.68,354.56 1028.3,863.11 1244.59,1483.92 -620.03,-213.33 -1147.9,-383.27 -1669.2,-492.84 -517.94,-112.01 -1016.95,-167.23 -1515.6,-174.31 -498.63,-4.64 -995.85,39.25 -1509.03,148.31 -516.65,106.73 -1038.34,280.91 -1647.96,518.84z"/>
   <path class="fil3" d="M-49764.23 74720.34c-610.12,-237.93 -1131.8,-412.11 -1648.46,-518.84 -512.8,-109.06 -1010.41,-152.95 -1509.05,-148.31 -498.62,7.08 -997.77,62.3 -1515.72,174.31 -521.3,109.57 -1049.16,279.51 -1669.08,492.84 216.68,-620.81 679.91,-1129.36 1245.11,-1483.92 567.14,-353.29 1244.59,-549.24 1926.96,-554 681.83,-6.95 1369.35,174.71 1943.03,530.31 570.35,355.97 1033.58,878.82 1227.21,1507.61z"/>
   <path class="fil3" d="M-65943.38 78474.73c0,1543.53 -948.74,2794.81 -2118.79,2794.81 -1169.91,0 -2118.64,-1251.28 -2118.64,-2794.81 0,-1543.55 948.73,-2794.83 2118.64,-2794.83 1170.05,0 2118.79,1251.28 2118.79,2794.83z"/>
   <path class="fil12" d="M-66880.66 77826.34c0,518.47 -286.71,938.69 -640.25,938.69 -353.79,0 -640.39,-420.22 -640.39,-938.69 0,-518.45 286.6,-938.68 640.39,-938.68 353.54,0 640.25,420.23 640.25,938.68z"/>
   <path class="fil3" d="M-67520.91 77015.63c-277.7,0 -512.42,371.18 -512.42,810.71 0,439.17 234.72,810.34 512.42,810.34 277.57,0 512.28,-371.17 512.28,-810.34 0,-439.53 -234.71,-810.71 -512.28,-810.71zm0 1877.39c-431.18,0 -768.35,-468.9 -768.35,-1066.68 0,-598.26 337.17,-1066.52 768.35,-1066.52 430.52,0 767.71,468.26 767.71,1066.52 0,597.78 -337.19,1066.68 -767.71,1066.68z"/>
   <path class="fil3" d="M-55531.41 78474.73c0,1543.53 948.59,2794.81 2118.64,2794.81 1170.05,0 2118.65,-1251.28 2118.65,-2794.81 0,-1543.55 -948.6,-2794.83 -2118.65,-2794.83 -1170.05,0 -2118.64,1251.28 -2118.64,2794.83z"/>
   <path class="fil12" d="M-54594.15 77826.34c0,518.47 286.6,938.69 640.26,938.69 353.67,0 639.74,-420.22 639.74,-938.69 0,-518.45 -286.07,-938.68 -639.74,-938.68 -353.66,0 -640.26,420.23 -640.26,938.68z"/>
   <path class="fil3" d="M-53953.89 77015.63c-277.71,0 -512.41,371.18 -512.41,810.71 0,439.17 234.7,810.34 512.41,810.34 277.58,0 511.76,-371.17 511.76,-810.34 0,-439.53 -234.18,-810.71 -511.76,-810.71zm0 1877.39c-431.18,0 -768.23,-468.9 -768.23,-1066.68 0,-598.26 337.05,-1066.52 768.23,-1066.52 430.65,0 767.72,468.26 767.72,1066.52 0,597.78 -337.07,1066.68 -767.72,1066.68z"/>
   <path class="fil13" d="M-26365.25 94575.46l0 0 4855.03 -18145.75 0 0 -4855.03 18145.75zm5246.41 -19609.09l0 0 1239.83 -4633.96 0 0 -1239.83 4633.96zm1631.22 -6097.16l0 0 417.15 -1560.15 0 0 -417.15 1560.15z"/>
   <polygon class="fil14" points="-19879.01,70332.41 -19879.01,70332.41 -19487.62,68869.21 -19487.62,68869.21 "/>
   <polygon class="fil15" points="-21510.22,76429.71 -21510.22,76429.71 -21118.84,74966.37 -21118.84,74966.37 "/>
   <polygon class="fil16" points="-30107.52,108566.07 -30107.52,108566.07 -28319.49,101881.94 -28319.49,101881.94 "/>
   <polygon class="fil17" points="-28319.49,101881.94 -28319.49,101881.94 -27249.99,97883.99 -27249.99,97884.5 "/>
   <polygon class="fil18" points="-27249.99,97884.5 -27249.99,97883.99 -26365.25,94575.46 -26365.25,94575.46 "/>
   <polygon class="fil19" points="-101125.36,66594.27 -101846.86,66587.69 -101846.86,66587.69 "/>
   <path class="fil20" d="M-29992.8 128201.54c-328.68,1624.27 -1207.9,3022.33 -2419.92,4014.95 -1212.15,990.07 -2757.49,1574.71 -4416.26,1574.71l-47095.89 0c-3317.02,0 -6176.61,-2338.68 -6836.18,-5589.66l60768.24 0 0.01 0z"/>
   <path class="fil3" d="M-90602.42 128329.52c703.08,3099.83 3486.58,5333.19 6677.56,5333.19l47095.89 0c1575.1,0 3114.9,-548.6 4335.55,-1545.86 1178.91,-965.59 2006.75,-2305.72 2342.39,-3787.33l-60451.38 0 -0.01 0zm53773.45 5589.64l-47095.89 0c-3364.79,0 -6292.73,-2393.91 -6961.31,-5692.14l-31.16 -153.97 61081.2 0 -31.16 153.46c-323.92,1600.7 -1198.87,3052.71 -2464.32,4088.6 -1266.22,1034.09 -2863.18,1604.05 -4497.37,1604.05l0.01 0z"/>
   <path class="fil3" d="M-89744.46 128970.3c888.62,2395.84 3202.84,4052.67 5820.12,4052.67l47096.28 0c2616.76,0 4930.97,-1656.83 5820.49,-4052.67l-58736.88 0 -0.01 0zm52916.4 5588.6l-47096.28 0c-3668.37,0 -6859.87,-2609.31 -7588.45,-6204.41 -45.69,-225.69 12.24,-460.41 158.24,-638.85 145.86,-178.44 363.96,-281.82 594.94,-281.82l60767.32 0c230.33,0 448.55,103.38 594.42,281.82 145.88,178.44 203.94,413.16 158.11,638.85 -728.57,3595.1 -3919.95,6204.41 -7588.31,6204.41l0.01 0z"/>
   <path class="fil21" d="M-36828.06 133022.96l-23791.17 0c2195.14,-551.55 4247.74,-1391.12 6151.65,-2531.8l18700 0c1290.04,0 2439.75,-586.95 3187.25,-1520.87l1572.76 0c-889.52,2395.84 -3203.73,4052.67 -5820.49,4052.67z"/>
   <path class="fil3" d="M-36828.97 133791.19l-29131.02 0c1863.73,-88.32 3644.81,-342.34 5340.78,-768.23l23791.16 0c2616.76,0 4930.97,-1656.83 5820.49,-4052.67l-1572.76 0c188.36,-235.62 351.34,-492.99 484.46,-768.76l2103.08 0c-328.68,1624.27 -1207.9,3022.33 -2419.92,4014.95 -1212.15,990.07 -2757.48,1574.71 -4416.26,1574.71l-0.01 0z"/>
   <path class="fil20" d="M-30011.21 98669.2l-2458.15 28032.18c-149.73,1710.64 -1581.4,3022.46 -3299.13,3022.46l-49216.87 0c-1715.41,0 -3147.07,-1311.82 -3299.12,-3022.46l-2455.85 -28032.18c-242.66,-2752.73 1927.99,-5122.69 4690.12,-5122.69l51346.96 0c903.68,0 1744.65,253.64 2458.16,690.86 1467.96,901.87 2397.12,2580.85 2233.88,4431.83z"/>
   <path class="fil3" d="M-86050.2 93674.5c-1280.9,0 -2511.46,542.15 -3376.9,1487.41 -866.07,945.25 -1298.53,2219.7 -1185.75,3495.98l2455.84 28032.17c146.78,1656.44 1510.45,2905.8 3171.66,2905.8l49216.87 0c1663.4,0 3026.7,-1249.36 3171.67,-2905.8l2458.02 -28032.17c153.97,-1741.42 -678.88,-3393.49 -2173.37,-4311.47 -717.76,-439.53 -1544.96,-671.92 -2391.08,-671.92l-51346.96 0zm50281.72 36177.31l-49216.87 0c-1794.84,0 -3267.96,-1349.53 -3426.59,-3139.09l-2455.82 -28032.17c-118.96,-1347.97 337.57,-2693.26 1251.67,-3691.93 913.71,-997.8 2213.66,-1570.46 3565.89,-1570.46l51346.96 0c893.76,0 1766.79,245.52 2525.23,710.18 1577.54,968.81 2456.73,2713.06 2294.26,4552.21l0 0 -2458.15 28031.78c-156.3,1789.95 -1629.53,3139.48 -3426.58,3139.48z"/>
   <path class="fil22" d="M-86330.09 128575.55c-658.8,-407.99 -1115.34,-1110.7 -1188.09,-1942.13l-2458.14 -28032.19c-97.72,-1114.3 264.44,-2182.37 1020.44,-3007.26 755.47,-824.49 1787.64,-1279.22 2906.19,-1279.22l51346.84 0c845.22,0 1641.39,259.81 2305.72,742.35 -8.5,48.16 -17.51,96.83 -26.39,144.83 -116.65,-8.48 -234.72,-13.12 -354.19,-13.12l-51346.84 0c-2761.87,0 -4932.39,2370.35 -4690.23,5123.08l2456.23 28032.18c7.08,77.89 16.6,154.87 28.46,231.48z"/>
   <path class="fil3" d="M-86049.69 94314.75c-1118.55,0 -2150.72,454.73 -2906.19,1279.22 -756,824.89 -1118.16,1892.96 -1020.44,3007.26l2458.14 28032.19c116.14,1323.5 1205.07,2321.3 2533.36,2321.3l49217.24 0c1328.67,0 2417.61,-997.8 2533.73,-2321.3l2457.63 -28032.19c97.85,-1114.3 -264.44,-2182.37 -1019.93,-3007.26 -755.87,-824.49 -1788.01,-1279.22 -2906.7,-1279.22l-51346.84 0zm50282.11 36176.41l-49217.24 0c-2130.63,0 -3877.6,-1600.7 -4064.15,-3723.21l-2457.63 -28032.58c-134.16,-1526.14 382.89,-3049.35 1417.88,-4179.22 1034.61,-1129.49 2507.34,-1777.35 4039.03,-1777.35l51346.84 0c1532.34,0 3004.56,647.86 4039.55,1777.35 1034.47,1129.87 1551.52,2653.08 1418.01,4179.22l-2458.15 28032.58c-186.17,2122.51 -1933.12,3723.21 -4064.14,3723.21z"/>
   <path class="fil21" d="M-35767.58 128954.72l-37474.31 0c22878.35,-3342.14 37159.91,-14019.96 40818.36,-33752.79 81.62,6.19 162.86,14.3 243.08,24.23 134.65,112.78 263.01,235.6 384.29,367.81 755.49,824.89 1117.78,1892.96 1019.93,3007.26l-2457.64 28032.19c-116.11,1323.5 -1205.05,2321.3 -2533.72,2321.3l0.01 0z"/>
   <path class="fil23" d="M-32180.44 95226.16c-80.22,-9.93 -161.46,-18.04 -243.08,-24.23 8.88,-48 17.89,-96.67 26.39,-144.83 74.03,53.82 146.38,109.96 216.69,169.06z"/>
   <path class="fil3" d="M-35768.48 129723.85l-44395.57 0c2387.85,-187.98 4695.89,-443.93 6922.17,-769.13l37474.31 0c1328.67,0 2417.61,-997.8 2533.73,-2321.3l2457.63 -28032.19c97.86,-1114.3 -264.43,-2182.37 -1019.93,-3007.26 -121.28,-132.21 -249.64,-255.03 -384.29,-367.81 -70.3,-59.1 -142.66,-115.24 -216.69,-169.06 50.09,-272.93 97.2,-545.36 143.05,-822.04l9 2.32c1467.96,901.87 2397.13,2580.85 2233.88,4431.84l-2458.15 28032.17c-149.73,1710.65 -1581.4,3022.46 -3299.13,3022.46l-0.01 0z"/>
   <path class="fil24" d="M-81573.96 117370.24c-742.21,0 -1375.4,-564.68 -1445.68,-1318.24l-1059.2 -11317.16c-75.06,-799.4 512.29,-1508.14 1311.79,-1583.2l3083.22 -288.52c45.84,-4.25 91.67,-6.18 136.99,-6.18 742.22,0 1375.4,565.19 1445.82,1318.36l1059.06 11317.04c75.07,799.4 -512.28,1508.27 -1311.66,1583.33l-3083.35 288.4c-45.82,4.38 -91.67,6.17 -136.99,6.17z"/>
   <g>
    <path class="fil25 str0" d="M-63565.36 118955.74c-1037.87,-936.26 -1340.89,-2903.31 -908.43,-4328.5 749.74,898.51 1788.52,1183.2 2864.55,1343.82 1661.21,247.95 3292.65,155.26 4835.75,-594.08 176.5,-85.73 339.65,-199.78 532.55,-315.36 144.82,414.54 182.47,833.14 131.97,1259.01 -123.07,1037.37 -646.1,1838.72 -1478.22,2446.16 -332.77,243 -684.77,460.19 -1028.46,689.21 -1055.69,704.2 -1341.3,1529.75 -944.56,2730.77 9.41,29.24 17.81,58.49 39.17,129.94 -539.03,-238.04 -932.83,-584.67 -1232.81,-1040.4 -316.77,-480.94 -467.57,-1012.98 -475.46,-1588.75 -4.05,-280.13 -4.05,-562.8 -42.21,-838.99 -93.21,-673.33 -413.52,-974.83 -1017.02,-992.24 -619.28,-17.81 -1109.22,360 -1239.17,955.1 -9.92,45.64 -24.29,90.68 -38.67,143.81l1.02 0.5z"/>
    <path class="fil26 str0" d="M-68784.97 114715.02c0,0 2837.92,-1378.94 5683.65,-1378.94l2145.69 -6623.86c80.25,-320.33 314.84,-538.02 579.6,-538.02 264.86,0 499.36,217.69 579.71,538.02l2145.58 6623.86c3370.48,0 5683.66,1378.94 5683.66,1378.94 0,0 -4820.37,-13098.85 -4829.78,-13125.05 -138.35,-387.32 -371.83,-636.69 -686.79,-636.69l-5784.26 0c-314.84,0 -539.02,249.37 -686.78,636.69 -10.43,25.7 -4830.28,13125.05 -4830.28,13125.05z"/>
   </g>
  </g>
  <g id="_2490756593296">
   <path class="fil8" d="M128738.9 89761.69c-127.8,389.64 -267.07,784.21 -411.27,1189.16 -3850.35,9863.27 -11402.07,15119.81 -15975.72,9168.55l2728.01 -13397.06 1855.73 -9107.27c7135.2,-4873.45 16648.86,-2683.45 11803.25,12146.62z"/>
   <path class="fil3" d="M112617.61 100058.14c1388.38,1758.57 3132.66,2543.8 5058.71,2270.79 3822.52,-544.25 7913.18,-5046.19 10420.08,-11467.55 141.73,-396.96 279.63,-789.43 406.41,-1176.34 2066.4,-6320.35 1675.32,-10947.28 -1095.88,-13027.94 -2441.79,-1831.36 -6550.58,-1384.24 -10247.73,1107.36l-4541.59 22293.65 0 0.03zm4309 2819.93c-1814.63,0 -3452.05,-890.38 -4771.1,-2606.83l-68.95 -90.55 4626.93 -22712.56 82.85 -57.44c3895.35,-2660.11 8278.49,-3121.18 10908.32,-1149.5 1711.2,1284.96 4151.92,4756.09 1269.28,13578.51 -127.8,390.73 -268.12,786.67 -413.66,1195.46 -2573.44,6591.3 -6817.34,11214.41 -10813.58,11784.13 -277.21,39.67 -551.97,58.81 -820.09,58.81l0 -0.03z"/>
   <path class="fil3" d="M114147.71 99658.36c980.62,1027.97 2077.92,1442 3329.42,1264.43 3273.37,-467.69 7008.83,-4717.82 9297.42,-10577.13 2218.53,-6131.62 2159.72,-10708.75 -174.83,-12518.51 -1825.06,-1415.2 -5117.58,-1069.09 -8169.81,805.81l-4282.2 21025.4zm2787.94 4637.36c-2251.67,0 -4319.44,-1097.25 -5905.62,-3159.83 -294.96,-383.06 -407.42,-874.76 -311.66,-1348.69l4585.14 -22504.3c85.65,-425.2 334.62,-799.55 692.27,-1044.7 4450.72,-3038.3 9533.48,-3459.65 12645.98,-1045.75 2089.37,1619.29 5029.46,5892.77 1252.93,16326.78 -2809.53,7199.29 -7381.78,12053.59 -11947.42,12703.4 -339.87,48.75 -676.97,73.12 -1011.62,73.12l0 -0.03z"/>
   <path class="fil8" d="M12356.4 89761.69c127.8,389.64 267.1,784.21 411.27,1189.16 3850.41,9863.27 11402.12,15119.81 15975.75,9168.55l-2728.04 -13397.06 -1856.75 -9107.27c-7134.18,-4873.45 -16647.5,-2683.45 -11802.23,12146.62z"/>
   <path class="fil3" d="M12685.87 89654.41c126.74,385.86 264.62,777.95 408.79,1180.16 2490.55,6379.19 6550.56,10857.08 10338.25,11397.19 1900.31,269.58 3560.63,-468.71 4939.98,-2199.38l-4524.87 -22209.02c-3655.06,-2448.41 -7701.13,-2887.54 -10099.39,-1086.84 -2737.1,2052.12 -3113.84,6639.71 -1062.76,12917.92l0 -0.03zm11485.26 13323.28c-274.41,0 -552.99,-20.55 -836.47,-61.29 -4030.74,-573.54 -8305.24,-5220.99 -10888.79,-11839.13 -149.36,-417.88 -290.09,-814.84 -418.93,-1206.94l0 -1.05c-2900.37,-8880.24 -427.94,-12387.25 1305.21,-13687.18 2662.87,-1997.42 7092.01,-1536.4 11021.42,1146.73l116.34 79.38 4645.03 22796.5 -97.17 126.74c-1339.62,1741.86 -3001.37,2646.21 -4846.64,2646.21l0 0.03z"/>
   <path class="fil3" d="M17388.33 76958.68c-1135.21,0 -2139.17,284.82 -2892.73,868.47 -2334.55,1809.76 -2393.39,6386.89 -159.5,12556.45 2273.23,5821.37 6008.7,10071.5 9282.07,10539.19 1252.93,177.57 2347.43,-236.46 3329.41,-1264.43l-4283.21 -21025.4c-1790.59,-1101.09 -3665.46,-1674.28 -5276.04,-1674.28zm6771.32 27337.04c-333.28,0 -671.78,-24.37 -1011.65,-73.12 -4564.21,-649.81 -9136.49,-5504.11 -11932.06,-12665.11 -3791.89,-10472.3 -850.4,-14745.78 1237.6,-16365.07 3113.52,-2413.9 8195.25,-1993.6 12645.95,1045.75 357.65,245.15 606.65,619.5 692.3,1044.7l4585.11 22504.3c96.84,473.93 -16.67,965.63 -311.66,1348.69 -1585.1,2061.19 -3653.95,3159.83 -5905.59,3159.83l0 0.03z"/>
   <path class="fil8" d="M115930.64 87061.83l0 7701.13c0,13247.71 -6339.85,25810.75 -17259.3,33312.69 -156.01,106.17 -311.66,205.75 -461.02,310.23 -16653.76,11164.95 -38458.16,11164.95 -55110.85,6.64 -150.79,-106.22 -306.47,-210.7 -462.44,-316.87 -10923.27,-7496.72 -17264.2,-20059.83 -17264.2,-33312.69l0 -7701.13c0,0 28.21,-494.13 83.23,-1384.19 411.27,-7029.38 2273.23,-38568.15 2573.44,-39373.99 9913.04,-26683.06 109022.3,-20142.97 87901.11,40758.18l0.03 0z"/>
   <path class="fil3" d="M63598.72 31742.81c-3960.4,0 -7864.43,291.46 -11582.14,886.59 -12524.78,2002.67 -21149.38,7030.41 -23662.86,13794.41 -239.94,887.29 -1524.93,21713.5 -2551.82,39274.03 -56.1,889.01 -82.88,1383.13 -82.88,1383.13l0 7681.99c0,13327.09 6398.34,25674.27 17114.78,33026.76 185.27,126.4 328.39,223.59 464.89,319.33 16616.82,11132.54 38098.07,11130.13 54718.73,-10.44 89.5,-62.33 187.65,-127.44 287.27,-193.94l172.7 -116.34c10711.22,-7358.79 17107.15,-19704.95 17107.15,-33025.37l17.77 -7814.65c11584.91,-33403.55 -13970.66,-46635.93 -25495.27,-50775 -8089.38,-2905.26 -17447.02,-4430.5 -26508.26,-4430.5l-0.06 0zm7049.92 105405.57c-9657.81,0 -19315.27,-2822.38 -27742.07,-8468.56 -140.32,-98.22 -279.63,-192.93 -418.9,-287.3 -10950.08,-7513.42 -17460.95,-20074.07 -17460.95,-33629.56l0 -7701.13c1.37,-20.2 28.21,-514.67 84.28,-1404.74 678.37,-11594.99 2287.52,-38652.46 2593.96,-39474.97 2601.62,-7003.56 11422.64,-12192.54 24201.6,-14237.35 12334.65,-1973.08 26703.61,-635.9 38434.06,3577.36 11713.78,4205.58 37675.32,17651.08 25936.16,51597.17l0 7643.66c0,13549.25 -6508.42,26108.48 -17410.12,33597.51l-178.62 120.15c-94.75,62.69 -187.72,125.03 -278.58,189.09 -8432.72,5652.47 -18096.8,8478.67 -27760.84,8478.67l0.02 0z"/>
   <path class="fil3" d="M28029.53 46300.88l6.26 0 -6.26 0zm1574.69 548.13l-11.51 32.03c3.82,-9.07 7.67,-19.5 11.51,-32.03zm-11.51 33.05l-1.4 0 1.4 0zm-2553.21 40228.55l0 7652.35c0,12892.83 6185.25,24832.56 16542.64,31939.95 148.37,102.03 296.36,202.99 446.1,302.6 16177.36,10841.78 37080.15,10840.38 53250.9,-2.45l444.72 -301.54c10357.37,-7109.79 16540.19,-19049.58 16540.19,-31938.56l0 -7701.13c0,-186.29 30.63,-371.55 90.55,-546.35 11199.05,-32286.09 -13535,-45090.5 -24689.46,-49096.91 -24176.16,-8683.08 -54942.25,-3874.74 -60027.81,9343.39 -307.87,2153.45 -1712.63,25154.32 -2597.8,40348.65l-0.03 0zm43612.96 51362.13c-9914.44,0 -19827.52,-2899.03 -28478.9,-8695.68 -159.47,-107.6 -319.32,-215.89 -478.82,-324.54 -11264.54,-7729.28 -17988.5,-20697.39 -17988.5,-34689.56l0 -7701.13c0,-33.08 0,-65.08 2.8,-96.79 2330.7,-40071.47 2652.47,-40960.49 2757.27,-41243.93 6100.62,-16414.85 40469.83,-20008.94 64326.38,-11440.42 11364.12,4081.6 19968.17,10555.54 24883.73,18720.14 5784.12,9609.05 6430.43,21160.88 1920.86,34339.58l0 7422.55c0,13988.38 -6722.94,26955.38 -17984.67,34685.71l-474.98 321.78c-8651.44,5800.81 -18568.3,8701.24 -28485.17,8702.29z"/>
   <path class="fil9" d="M115408.31 29966.47c12501.81,15975.75 10946.26,43776.28 416.16,58345.87 -8057.35,-4445.87 -8589.83,-25472.63 -8589.83,-25472.63 -19071.46,5190.35 -38368.95,2023.21 -55867.17,-13051.98 -372.6,5923.36 4590.06,11418.79 4590.06,11418.79 -2251.31,-66.54 -4267.94,-394.57 -6079.05,-938.82 -6329.44,-1895.07 -10096.94,-6478.84 -12403.28,-12241.33 -2222.37,20003.69 -2361.68,24449.52 -12102.37,39035.46 -9723.97,-20837.72 -11513.19,-46537.37 4696.23,-54221.78 -22600.1,-7780.14 -14264.52,-23527.4 5183.77,-9541.5 -9540.13,-13708.75 2500.63,-18992.07 5001.24,-3890.07 14063.63,-25688.17 75848.95,-16669.06 84223.18,12503.21l-9047.38 -1940c-16.7,-5.22 -21.59,-5.22 -21.59,-5.22l0.03 0z"/>
   <path class="fil3" d="M107569.3 62390.17l11.16 440.82c5.21,205.49 606.96,20407.3 8145.8,25022.75 10024.14,-14164.61 11912.94,-41695.6 -590.27,-57674.15l-439.13 -559.26 846.55 25.77 8433.1 1804.52c-4851.89,-15505.61 -24562.02,-24404.59 -42126.37,-26356.43 -15204.06,-1690.66 -34035.58,1226.15 -41291.99,14481.46l-481.62 878.96 -164.72 -988.66c-973.3,-5883.67 -3362.49,-8410.04 -5113.76,-8785.46 -888.67,-190.13 -1665.25,134.08 -2186.19,916.87 -1145.65,1721.7 -1066.64,5767.74 2924.44,11503.11l1154.72 1659.32 -1639.78 -1180.15c-8164.97,-5871.17 -14026.7,-6252.83 -16560.8,-4796.89 -1180.15,678.01 -1759.96,1793.04 -1630.76,3140.33 271.99,2863.18 3923.17,7353.95 13321.55,10588.64l803.36 277.19 -767.51 364.26c-15780.37,7479.96 -14357.51,32313.92 -4789.2,53201.44 8960.32,-13516.17 9499.36,-18395.92 11436.57,-35953.97l420.33 -3785.27 513.27 1282.15c2567.17,6415.1 6550.56,10353.58 12179,12038.32 1606.37,482.67 3357.62,781.45 5210.55,890.1 -1282.16,-1611.95 -4475.1,-6149.4 -4165.86,-11060.13l43.19 -696.11 527.53 456.17c16446.9,14168.43 35135.33,18536.28 55550.3,12980.61l426.57 -116.28 -0.03 -0.03zm8356.12 26372.78l-268.14 -147.99c-7582.35,-4182.61 -8628.45,-22187.78 -8754.81,-25326.74 -20256.54,5384.33 -38824.81,1090.66 -55209.03,-12766.46 53.62,5434.14 4473.69,10401.31 4521.08,10452.14l542.53 601.75 -809.63 -23c-2205.68,-65.45 -4280.79,-385.82 -6169.95,-952.78 -5473.48,-1639.8 -9444.33,-5315.35 -12103.42,-11220.96l-121.15 1098.29c-1976.93,17911.88 -2508.33,22725.44 -11891.38,36776.19l-342.32 512.22 -260.45 -556.78c-9793.3,-20988.54 -11421.27,-46158.22 4125.11,-54315.13 -9127.81,-3314.14 -12717.68,-7776.67 -13014.03,-10905.52 -155.69,-1633.56 546.72,-2984.7 1975.85,-3805.78 2678.24,-1537.81 8188.96,-1263.04 15848.97,3824.93 -3209.25,-5251.32 -3118.38,-9052.21 -1960.17,-10794.43 679.42,-1020.3 1744.6,-1460.83 2909.11,-1209.38 1951.46,418.93 4359.13,2858.25 5480.41,8413.92 7734.22,-12850.72 26393.04,-15690.9 41502.73,-14011.38 18002.78,1999.9 38244.98,11252.71 42882.37,27409.49l159.82 555.76 -8717.91 -1868.6c12130.24,16408.58 10024.46,43940.99 -145.57,58012.61l-180.05 247.6 0.03 0.03z"/>
   <path class="fil10" d="M20462.13 25636.92c-1433.99,-1388.01 -2182.36,-2726.64 -2288.24,-3838.87 -79.39,-836.82 238.92,-1448.3 972.98,-1870 633.43,-362.52 1495.66,-561.71 2555.66,-561.71 530,0 1109.83,49.81 1734.17,154.28 -3237.47,605.57 -4476.12,3115.24 -2974.57,6116.3z"/>
   <path class="fil10" d="M22366.06 74353.53c-1865.2,-6558.77 -3017.26,-12229.41 -2704.49,-19274.85 260.48,-7176.32 2402.42,-16598.71 11121.38,-20732.88 45.99,-21.6 91.95,-45.99 135.49,-71.4 349.63,850.4 170.98,1883.55 -634.83,2552.86 -11219.57,9302.58 -8120.33,24803.61 -7917.55,37526.27z"/>
   <path class="fil10" d="M36674.32 22429.09c-16.73,-28.24 -34.51,-55.05 -53.66,-83.23 -3872.29,-5563.36 -3596.51,-8984.72 -2909.42,-10016.51 200.56,-302.62 410.22,-382.01 605.56,-382.01 70.35,0 139.31,10.47 205.43,24.4 397.37,85.65 973.3,431.78 1581.32,1163.42 -919.68,1450.7 -1007.75,4171.1 644.59,7810.8 237.86,526.5 172.73,1058.98 -73.82,1483.13z"/>
   <path class="fil10" d="M43531.32 19151.88c-361.5,0 -720.51,-74.17 -1048.52,-222.54 5343.59,-8191.41 17149.29,-12956.25 31547.48,-12956.25 2486.71,0 5052.45,141.76 7673.24,432.9 9415.08,1047.09 19454.58,4113.6 27364.93,9141.71 -10213.25,-4149.5 -22997.08,-6841.7 -34702.15,-6896.69 -1053.73,2021.84 -3424.1,2923.39 -5844.33,2923.39 -2164.55,0 -4367.46,-721.53 -5702.25,-2006.17 -7279.72,1305.18 -13442.03,4062.49 -17287.17,8657.71 -516.06,618.1 -1263.04,925.94 -2001.26,925.94l0.03 0z"/>
   <path class="fil3" d="M107233.27 61173.06c355.17,0 704.83,113.89 996.3,329.79 409.84,305.07 657.47,782.81 670.32,1294.72 134.09,5178.87 1580.99,18638.65 6510.86,23165.97 9081.83,-14072.67 10518.62,-39848.97 -1315.58,-54969.1 -432.89,-552.99 -472.24,-1316.66 -99.61,-1911.77 371.9,-595.13 1072.91,-892.51 1762.73,-745.92l6151.82 1319.46c-5776.46,-13591.45 -23925.8,-21440.51 -40206.59,-23250.22 -18573.51,-2062.59 -34266.8,3354.82 -39987.22,13803.09 -342.28,624.74 -1041.87,963.24 -1741.83,843.08 -701.33,-118.73 -1249.08,-669.3 -1365.39,-1370.61 -926.99,-5603.75 -3079.04,-7492.87 -4086.85,-7709.81 -247.57,-53.66 -537.66,-53.66 -810.99,357.61 -687.09,1031.79 -962.87,4453.15 2909.42,10016.51 463.5,666.48 380.64,1570.85 -198.11,2140.57 -579.78,569.34 -1485.2,638.65 -2142.99,166.09 -7164.49,-5152.06 -12762.3,-6084.62 -15132.69,-4724.44 -734.06,421.7 -1052.37,1033.18 -972.98,1870 253.9,2667.78 4197.94,6629.6 12437.76,9465.93 641.06,219.72 1084.36,805.79 1121.66,1482.75 36.87,676.97 -338.5,1309 -950.36,1599.09 -8718.96,4134.18 -10860.9,13556.57 -11121.38,20732.89 -308.89,8508.29 1859.51,18756.02 5992.31,28513.35 7510.98,-11710.25 8043.43,-16533.9 9897.75,-33335.97l267.1 -2414.99c85.27,-759.82 675.57,-1363.67 1432.94,-1467.42 759.86,-103.43 1487.62,324.54 1771.1,1033.16 2684.5,6712.86 7090.99,10587.6 13415.19,11761.14 -1431.55,-2366.2 -2965.5,-5815.77 -2734.28,-9485.08 39.35,-630.98 432.84,-1186.42 1016.49,-1431.61 582.25,-245.47 1255.34,-140.67 1735.57,273.05 16093.45,13864.75 34374.11,18140.68 54340.88,12707.59 144.17,-39.34 291.11,-58.87 436.68,-58.87l-0.03 -0.03zm8589.77 28805.92c-272.98,0 -549.14,-67.93 -802.98,-206.86 -7352.55,-4056.19 -8993.75,-19033.16 -9356.27,-24807.14 -18979.54,4602.88 -36472.51,828.77 -52095.48,-11229.71 1128.95,3535.19 3594.79,6319.3 3628.19,6356.23 445.77,496.92 552.99,1211.83 271.99,1816 -274.41,590.24 -864.65,965.63 -1510.96,965.63 -16.38,0 -34.15,0 -50.88,0 -7653.72,-235.07 -13478.9,-3325.56 -17379.4,-9204.43 -1759.62,15720.19 -2762.2,20833.93 -11768.81,34319.1 -333.25,499.37 -906.79,780.37 -1511.98,735.81 -600.38,-45.96 -1128.98,-411.27 -1384.59,-956.6 -9555.41,-20477.62 -11398.25,-44900.02 2382.25,-54621.89 -7882.55,-3423.8 -11084.52,-7820.91 -11389.56,-11031.56 -204.44,-2148.24 756.01,-3999.1 2633.33,-5076.87 2522.2,-1449.33 7159.59,-1555.52 13381.73,1608.15 -1372.7,-3733.4 -1014.01,-6540.47 65.14,-8163.58 982.36,-1473.71 2586.32,-2135.35 4286.01,-1768.96 2448.41,526.15 4480.34,2911.87 5737.08,6598.93 8814.73,-11319.21 26578.27,-13832.4 41114.77,-12218.33 18440.13,2050.02 39200.21,11613.08 44006.14,28358.74 161.92,563.45 16.35,1170.04 -383.44,1597.66 -399.73,428 -994.86,614.28 -1568.05,491.71l-4960.53 -1063.85c4513.38,7402.36 6890.07,16895.45 6753.57,27210.65 -149.39,11329.67 -3337.11,22118.5 -8744.79,29600.21 -322.76,448.17 -832.59,690.9 -1352.51,690.9l0.03 0.06z"/>
   <path class="fil3" d="M107233.27 64507.72c-735.8,0 -1408.58,-490.31 -1609.17,-1234.8 -238.89,-889.01 288.69,-1803.5 1177.36,-2042.39 2070.22,-556.78 4163.43,-1225.76 6222.17,-1986.98 863.6,-319.33 1822.65,120.12 2141.94,984.43 319.35,863.6 -121.53,1822.64 -984.75,2141.97 -2153.13,796.74 -4344.88,1496.68 -6513.31,2080.33 -145.54,38.29 -291.11,57.44 -434.24,57.44z"/>
   <path class="fil3" d="M123505.35 68386.63l-1693.81 -14.25c1943.86,-11767.41 388.63,-25027.96 -5910.48,-34832.39 -109.69,-1136.62 -273.36,-2326.86 -492.75,-3573.52 7958.78,10169.71 10220.91,25129.96 8097.04,38420.16zm-14190.37 -123.95l-1668.02 -14.31c-168.53,-1504.34 -270.56,-2797.98 -330.45,-3743.1 115.96,-5.24 233.64,-24.39 351,-55.02 428,-114.94 856.99,-235.07 1286.03,-358.7 64.06,1182.58 180.02,2611.74 361.44,4171.13zm-18814.83 -3102.35c-13467.44,0 -26749.25,-4703.55 -39132.65,-15372.6 -372.6,5923.36 4590.06,11418.79 4590.06,11418.79 -2251.32,-66.54 -4267.94,-394.57 -6079.05,-938.82 -476.37,-785.27 -918.3,-1538.85 -1322.93,-2261.78 1202.77,518.52 2496.79,905.42 3882.38,1162.06 -1431.55,-2366.2 -2965.5,-5815.77 -2734.28,-9485.08 39.35,-630.98 432.84,-1186.42 1016.49,-1431.61 208.23,-88.07 427.94,-131.61 646.31,-131.61 393.14,0 780.4,139.31 1089.26,404.66 11581.06,9978.53 24298.77,14989.89 37960.16,14989.89 5320.6,0 10782.91,-759.86 16380.72,-2282.3 6.27,-2.45 13.9,-3.82 20.55,-6.26 -5.22,1.04 -10.44,3.81 -15.68,4.86 -884.85,237.84 -1411.03,1143.26 -1181.18,2028.43 -5038.55,1244.94 -10093.09,1901.37 -15120.16,1901.37z"/>
   <path class="fil3" d="M107316.51 64505.3c-66.86,-1047.47 -81.87,-1665.59 -81.87,-1665.59 -537.63,146.97 -1075.29,286.27 -1614.36,419.25 -229.85,-885.17 296.33,-1790.59 1181.18,-2028.43 5.24,-1.05 10.46,-3.82 15.68,-4.86 2065,-555.45 4152.97,-1222.3 6206.49,-1982.12 190.48,-71.41 385.86,-104.83 578.79,-104.83 677.98,0 1314.21,416.48 1563.15,1089.26 319.35,863.6 -121.53,1822.64 -984.75,2141.97 -1729.33,639.69 -3481.25,1217.05 -5227.28,1721.63 -429.04,123.63 -858.03,243.76 -1286.03,358.7 -117.36,30.63 -235.04,49.78 -351,55.02z"/>
   <path class="fil11" d="M95538.67 48432.39c-6098.17,0 -11043.37,-2047.23 -11043.37,-4573.27 0,-2525.03 4945.2,-2590.14 11043.37,-2590.14 6099.63,0 11043.43,65.11 11043.43,2590.14 0,2526.04 -4943.8,4573.27 -11043.43,4573.27z"/>
   <path class="fil3" d="M76494.02 117886.76c0,0 -2390.97,1527.34 -8621.85,1527.34 -1352.51,93.35 -5221.02,-118.73 -10109.8,-4582.37 0,0 2257.94,6509.82 9963.91,6509.82 0,0 4384.57,398.39 8767.74,-3454.79z"/>
   <path class="fil3" d="M41114.93 88958.3c523.42,-1700.75 1775.29,-3114.92 3319.33,-4077.76 1551.7,-961.81 3409.88,-1453.17 5254.12,-1434.37 1845.26,12.88 3678,542.88 5213.32,1498.46 1527.34,958.99 2781.32,2334.52 3366.34,4013.67 -1677.05,-577.01 -3104.81,-1036.66 -4514.82,-1333.02 -1400.91,-302.97 -2750.62,-452.33 -4099.34,-471.48 -1348.7,-12.56 -2693.57,106.17 -4081.6,401.16 -1397.42,288.66 -2808.48,759.79 -4457.35,1403.34z"/>
   <path class="fil3" d="M100859.3 88958.3c-1650.24,-643.55 -3061.27,-1114.68 -4458.72,-1403.34 -1387.01,-294.99 -2732.93,-413.72 -4081.63,-401.16 -1348.66,19.15 -2698.75,168.51 -4099.69,471.48 -1409.98,296.36 -2837.74,756.01 -4514.47,1333.02 586.07,-1679.15 1839,-3054.68 3367.74,-4013.67 1533.98,-955.58 3366.33,-1485.58 5211.98,-1498.46 1844.21,-18.8 3703.78,472.56 5255.46,1434.37 1542.67,962.84 2795.59,2377.01 3319.33,4077.76z"/>
   <path class="fil3" d="M57098.34 99113.06c0,4174.91 -2566.12,7559.35 -5730.84,7559.35 -3164.35,0 -5730.44,-3384.44 -5730.44,-7559.35 0,-4174.95 2566.09,-7559.38 5730.44,-7559.38 3164.72,0 5730.84,3384.43 5730.84,7559.38z"/>
   <path class="fil12" d="M54563.23 97359.33c0,1402.35 -775.5,2538.93 -1731.75,2538.93 -956.92,0 -1732.1,-1136.58 -1732.1,-2538.93 0,-1402.31 775.18,-2538.93 1732.1,-2538.93 956.25,0 1731.75,1136.62 1731.75,2538.93z"/>
   <path class="fil3" d="M52831.48 95166.54c-751.11,0 -1385.96,1003.95 -1385.96,2192.79 0,1187.85 634.85,2191.78 1385.96,2191.78 750.76,0 1385.62,-1003.93 1385.62,-2191.78 0,-1188.84 -634.86,-2192.79 -1385.62,-2192.79zm0 5077.92c-1166.22,0 -2078.2,-1268.29 -2078.2,-2885.13 0,-1618.18 911.98,-2884.71 2078.2,-2884.71 1164.48,0 2076.49,1266.53 2076.49,2884.71 0,1616.84 -912.01,2885.13 -2076.49,2885.13z"/>
   <path class="fil3" d="M85260.37 99113.06c0,4174.91 2565.74,7559.35 5730.44,7559.35 3164.72,0 5730.49,-3384.44 5730.49,-7559.35 0,-4174.95 -2565.77,-7559.38 -5730.49,-7559.38 -3164.7,0 -5730.44,3384.43 -5730.44,7559.38z"/>
   <path class="fil12" d="M87795.46 97359.33c0,1402.35 775.18,2538.93 1731.75,2538.93 956.59,0 1730.35,-1136.58 1730.35,-2538.93 0,-1402.31 -773.76,-2538.93 -1730.35,-2538.93 -956.57,0 -1731.75,1136.62 -1731.75,2538.93z"/>
   <path class="fil3" d="M89527.21 95166.54c-751.14,0 -1385.94,1003.95 -1385.94,2192.79 0,1187.85 634.8,2191.78 1385.94,2191.78 750.78,0 1384.21,-1003.93 1384.21,-2191.78 0,-1188.84 -633.43,-2192.79 -1384.21,-2192.79zm0 5077.92c-1166.23,0 -2077.89,-1268.29 -2077.89,-2885.13 0,-1618.18 911.66,-2884.71 2077.89,-2884.71 1164.82,0 2076.51,1266.53 2076.51,2884.71 0,1616.84 -911.69,2885.13 -2076.51,2885.13z"/>
  </g>
 </g>
</svg>
